<svg width="272" height="272" viewBox="0 0 272 272" fill="none" xmlns="http://www.w3.org/2000/svg">
<path d="M136 259.994C206.781 259.994 264.161 226.865 264.161 185.999C264.161 145.133 206.781 112.004 136 112.004C65.2187 112.004 7.83911 145.133 7.83911 185.999C7.83911 226.865 65.2187 259.994 136 259.994Z" fill="#F0F0F0"/>
<path d="M109.48 242.069C133.888 242.069 153.675 230.646 153.675 216.555C153.675 202.465 133.888 191.042 109.48 191.042C85.072 191.042 65.2854 202.465 65.2854 216.555C65.2854 230.646 85.072 242.069 109.48 242.069Z" fill="#E0E0E0"/>
<path d="M235.161 184.634L229.976 181.642C229.976 181.642 228.709 170.544 229.552 161.949C230.738 149.872 238.539 135.336 247.841 138.753C257.144 142.169 243.576 154.463 240.557 164.707C237.538 174.95 235.161 184.634 235.161 184.634Z" fill="#6CBEBF"/>
<path opacity="0.15" d="M235.161 184.634L229.976 181.642C229.976 181.642 228.709 170.544 229.552 161.949C230.738 149.872 238.539 135.336 247.841 138.753C257.144 142.169 243.576 154.463 240.557 164.707C237.538 174.95 235.161 184.634 235.161 184.634Z" fill="black"/>
<path d="M232.435 183.377C232.518 183.373 232.596 183.336 232.652 183.275C232.708 183.214 232.737 183.133 232.734 183.051C231.826 156.215 245.187 142.713 245.317 142.582C245.376 142.523 245.409 142.443 245.409 142.359C245.409 142.276 245.376 142.195 245.317 142.136C245.288 142.107 245.254 142.084 245.216 142.068C245.178 142.053 245.138 142.044 245.097 142.044C245.056 142.044 245.015 142.053 244.977 142.068C244.94 142.084 244.905 142.107 244.876 142.136C244.735 142.267 231.184 155.965 232.103 183.072C232.105 183.114 232.114 183.155 232.132 183.194C232.149 183.232 232.174 183.266 232.205 183.294C232.236 183.323 232.272 183.345 232.312 183.359C232.351 183.373 232.393 183.379 232.435 183.377Z" fill="white"/>
<path d="M238.419 186.5L234.731 184.372C234.731 184.372 234.1 176.756 237.837 167.508C241.101 159.457 249.152 152.772 253.21 154.175C257.269 155.579 257.165 158.456 255.185 161.476C253.205 164.495 241.177 171.681 238.419 186.5Z" fill="#6CBEBF"/>
<path d="M236.472 185.694C236.555 185.693 236.634 185.659 236.693 185.6C236.752 185.542 236.786 185.462 236.787 185.379C236.711 168.406 252.645 156.939 252.808 156.824C252.842 156.801 252.871 156.771 252.893 156.736C252.915 156.701 252.93 156.663 252.936 156.622C252.943 156.581 252.941 156.54 252.931 156.5C252.921 156.46 252.903 156.422 252.879 156.389C252.83 156.322 252.758 156.276 252.677 156.262C252.595 156.248 252.511 156.266 252.443 156.313C252.28 156.427 236.085 168.091 236.156 185.379C236.156 185.463 236.189 185.543 236.248 185.602C236.308 185.661 236.388 185.694 236.472 185.694Z" fill="white"/>
<path d="M43.3351 177.97L48.1223 174.738C48.1223 174.738 50.2276 162.226 48.2692 151.188C45.5165 135.706 34.816 130.56 31.008 132.192C27.2 133.824 26.384 138.432 33.4941 147.266C37.7101 152.461 43.1882 163.554 43.3351 177.97Z" fill="#6CBEBF"/>
<g opacity="0.15">
<path d="M43.3351 177.97L48.1223 174.738C48.1223 174.738 50.2276 162.226 48.2692 151.188C45.5165 135.706 34.816 130.56 31.008 132.192C27.2 133.824 26.384 138.432 33.4941 147.266C37.7101 152.461 43.1882 163.554 43.3351 177.97Z" fill="black"/>
</g>
<path d="M44.9781 171.768H44.9291C44.8802 171.765 44.8325 171.752 44.7891 171.729C44.7457 171.706 44.7077 171.674 44.6774 171.636C44.6471 171.597 44.6252 171.553 44.6133 171.505C44.6014 171.458 44.5996 171.408 44.6081 171.36C46.3381 156.786 40.1854 140.967 33.4888 134.673C33.4243 134.607 33.3882 134.52 33.3882 134.428C33.3882 134.336 33.4243 134.248 33.4888 134.183C33.5207 134.15 33.5588 134.125 33.6008 134.107C33.6428 134.089 33.688 134.08 33.7336 134.08C33.7792 134.08 33.8243 134.089 33.8663 134.107C33.9084 134.125 33.9465 134.15 33.9784 134.183C40.8001 140.591 47.067 156.672 45.3153 171.458C45.3051 171.541 45.2655 171.618 45.2037 171.675C45.1419 171.732 45.0619 171.765 44.9781 171.768Z" fill="white"/>
<path d="M30.8014 186.423C30.0398 186.88 27.8203 185.232 27.2055 184.835C26.152 184.147 25.2938 183.199 24.714 182.082C24.0636 180.816 23.8222 179.379 24.0231 177.97C24.1346 177.234 24.2963 176.507 24.5073 175.794C24.6977 175.081 24.8881 174.368 25.0513 173.65C25.2926 172.952 25.3852 172.211 25.3233 171.474C25.1111 170.022 23.8001 169.026 22.6033 168.172C21.2868 167.22 19.8833 165.964 19.8833 164.212C19.9504 162.836 20.4772 161.522 21.3793 160.48C22.1953 159.392 23.1745 158.445 23.9089 157.308C24.4832 156.521 24.7763 155.563 24.7412 154.588C24.6466 153.988 24.432 153.412 24.1102 152.897C23.4683 151.765 22.6359 150.721 22.1844 149.518C21.7329 148.316 21.7655 146.771 22.7284 145.874C23.4955 145.139 24.6651 145.02 25.7259 145.068C26.7255 145.168 27.6911 145.486 28.5547 145.999C31.3671 147.495 33.0209 150.759 35.9966 151.896C37.1444 152.331 38.3956 152.407 39.587 152.701C40.7783 152.995 42.0078 153.577 42.579 154.659C43.7051 156.808 41.7412 159.517 42.5463 161.796C43.2644 163.82 45.2663 164.56 46.3979 166.372C46.8571 167.176 47.0477 168.106 46.9419 169.026C46.878 170.58 46.5295 172.108 45.9137 173.536C45.2054 175.017 44.406 176.452 43.5201 177.834C43.5201 177.834 30.9156 186.353 30.8014 186.423Z" fill="#6CBEBF"/>
<path d="M38.1564 181.914C38.1106 181.913 38.0655 181.903 38.0235 181.885C37.9816 181.867 37.9436 181.841 37.9117 181.808C37.8799 181.775 37.8549 181.736 37.838 181.694C37.8212 181.651 37.8129 181.606 37.8136 181.56C38.1183 167.786 31.34 152.728 26.542 148.376C26.4738 148.314 26.4326 148.229 26.4275 148.137C26.4224 148.045 26.4538 147.955 26.5148 147.886C26.5467 147.854 26.5847 147.828 26.6268 147.81C26.6688 147.793 26.714 147.784 26.7596 147.784C26.8051 147.784 26.8503 147.793 26.8923 147.81C26.9344 147.828 26.9724 147.854 27.0044 147.886C31.9004 152.293 38.8146 167.612 38.5045 181.576C38.5038 181.621 38.4942 181.666 38.4764 181.707C38.4585 181.748 38.4326 181.786 38.4003 181.817C38.368 181.848 38.3298 181.873 38.2879 181.89C38.2461 181.906 38.2014 181.914 38.1564 181.914Z" fill="white"/>
<path d="M35.6158 165.131C35.5836 165.139 35.55 165.139 35.5178 165.131C31.0679 163.847 25.5518 163.717 25.4974 163.711C25.4519 163.711 25.407 163.701 25.3653 163.683C25.3237 163.664 25.286 163.638 25.2546 163.605C25.2232 163.572 25.1987 163.533 25.1825 163.491C25.1663 163.449 25.1586 163.403 25.1601 163.358C25.1592 163.312 25.1679 163.266 25.1856 163.224C25.2033 163.181 25.2296 163.143 25.2628 163.111C25.2961 163.08 25.3355 163.055 25.3787 163.04C25.4219 163.024 25.4679 163.017 25.5137 163.02C25.5681 163.02 31.1713 163.156 35.7082 164.462C35.7959 164.489 35.8696 164.549 35.9134 164.629C35.9572 164.709 35.9675 164.804 35.9422 164.892C35.921 164.962 35.8777 165.023 35.8189 165.066C35.76 165.109 35.6887 165.132 35.6158 165.131Z" fill="white"/>
<path d="M163.831 168.499L161.769 167.307C161.426 167.084 161.14 166.783 160.935 166.429C160.73 166.074 160.611 165.676 160.589 165.267V79.5763C160.611 79.168 160.729 78.7707 160.933 78.4164C161.138 78.062 161.422 77.7606 161.764 77.5363L219.074 44.4502C219.439 44.2653 219.843 44.1689 220.252 44.1689C220.661 44.1689 221.065 44.2653 221.43 44.4502L223.492 45.6416C223.835 45.8646 224.121 46.1657 224.326 46.5202C224.531 46.8747 224.65 47.2726 224.672 47.6816V133.372C224.65 133.781 224.532 134.178 224.327 134.532C224.123 134.887 223.839 135.188 223.497 135.412L166.187 168.504C165.822 168.689 165.418 168.786 165.008 168.785C164.599 168.784 164.195 168.686 163.831 168.499Z" fill="#455A64"/>
<path d="M224.672 47.4912C224.591 46.8819 224.095 46.6589 223.503 47.0016L166.187 80.0931C165.84 80.3106 165.554 80.6118 165.354 80.969L160.932 78.4176C161.129 78.0577 161.416 77.7544 161.764 77.5363L219.074 44.4502C219.439 44.2653 219.843 44.1689 220.252 44.1689C220.661 44.1689 221.065 44.2653 221.43 44.4502L223.492 45.6416C223.81 45.8466 224.08 46.118 224.284 46.4373C224.488 46.7565 224.62 47.116 224.672 47.4912Z" fill="#455A64"/>
<path d="M165.985 168.596C165.637 168.738 165.263 168.802 164.887 168.786C164.512 168.77 164.144 168.674 163.809 168.504L161.742 167.307C161.4 167.083 161.116 166.781 160.912 166.427C160.708 166.073 160.59 165.675 160.567 165.267V79.5763C160.581 79.1672 160.699 78.7685 160.91 78.4176L165.333 80.9689C165.118 81.3203 164.998 81.7214 164.984 82.1331V167.824C165.006 168.499 165.43 168.809 165.985 168.596Z" fill="#263238"/>
<path d="M165.006 82.144V167.824C165.006 168.575 165.55 168.879 166.187 168.504L223.497 135.412C223.839 135.188 224.123 134.887 224.327 134.532C224.532 134.178 224.65 133.781 224.672 133.372V47.6816C224.672 46.9309 224.128 46.6262 223.497 47.0016L166.187 80.0931C165.842 80.3172 165.555 80.62 165.35 80.9765C165.144 81.333 165.027 81.7331 165.006 82.144Z" fill="#37474F"/>
<path d="M151.624 114.784C150.884 114.343 147.451 112.39 147.272 112.287C147.132 112.204 147.012 112.09 146.922 111.954C146.832 111.818 146.774 111.664 146.752 111.503C146.729 111.341 146.743 111.177 146.793 111.022C146.842 110.867 146.926 110.725 147.038 110.606L160.589 96.0704L165.006 98.6054L151.461 113.152C151.354 113.265 151.273 113.4 151.223 113.547C151.173 113.694 151.156 113.85 151.171 114.005C151.186 114.16 151.235 114.309 151.313 114.444C151.391 114.578 151.497 114.694 151.624 114.784Z" fill="#455A64"/>
<path d="M165.006 98.6217L151.46 113.152C151.31 113.313 151.212 113.515 151.179 113.733C151.146 113.95 151.18 114.173 151.276 114.371C151.372 114.569 151.526 114.733 151.717 114.842C151.908 114.95 152.128 114.999 152.347 114.98L165.006 113.935V98.6217Z" fill="#37474F"/>
<path d="M194.839 72.4608C201.52 68.6038 206.932 71.7318 206.932 79.4458C206.932 87.1597 201.52 96.5328 194.839 100.39C188.159 104.247 182.746 101.119 182.746 93.4102C182.746 85.7018 188.159 76.3178 194.839 72.4608Z" fill="#6CBEBF"/>
<path d="M194.752 78.5318C196.928 77.2806 198.674 78.2925 198.674 80.7949C198.6 82.1552 198.206 83.4788 197.525 84.6584C196.844 85.838 195.894 86.8403 194.752 87.584C192.576 88.8352 190.824 87.8234 190.824 85.321C190.899 83.9602 191.294 82.6362 191.976 81.4566C192.659 80.277 193.61 79.2749 194.752 78.5318Z" fill="white"/>
<path d="M202.488 91.8707C202.488 87.7635 199.599 86.0934 196.041 88.1497L193.816 89.4336C190.259 91.4899 187.37 96.5056 187.37 100.602V101.728C188.042 101.943 188.743 102.051 189.448 102.049C191.356 101.984 193.215 101.421 194.839 100.417C197.931 98.5121 200.548 95.9258 202.488 92.8553V91.8707Z" fill="white"/>
<path d="M187.179 138.573L202.499 129.728C203.151 129.352 203.679 129.657 203.679 130.408V135.342C203.657 135.751 203.538 136.149 203.333 136.503C203.128 136.858 202.842 137.159 202.499 137.382L187.179 146.227C186.527 146.603 185.999 146.298 185.999 145.547V140.613C186.021 140.204 186.14 139.806 186.345 139.452C186.55 139.097 186.836 138.796 187.179 138.573Z" fill="#6CBEBF"/>
<path d="M179.678 127.552L209.984 110.046C210.762 109.594 211.398 109.959 211.398 110.862V112.695C211.372 113.186 211.23 113.663 210.984 114.088C210.738 114.514 210.396 114.875 209.984 115.143L179.661 132.649C178.883 133.1 178.252 132.736 178.252 131.833V130.016C178.277 129.522 178.419 129.04 178.667 128.612C178.915 128.183 179.262 127.82 179.678 127.552Z" fill="#FAFAFA"/>
<path d="M183.225 114.882C183.638 114.643 183.959 114.604 184.188 114.773C184.416 114.942 184.53 115.317 184.53 115.894C184.542 116.42 184.424 116.941 184.188 117.412C183.974 117.837 183.639 118.189 183.225 118.423L182.409 118.897V120.654C182.407 120.714 182.392 120.774 182.365 120.828C182.346 120.877 182.312 120.919 182.267 120.948L181.854 121.187C181.84 121.197 181.822 121.203 181.805 121.203C181.787 121.203 181.77 121.197 181.756 121.187C181.727 121.15 181.713 121.103 181.718 121.056V115.97C181.717 115.91 181.73 115.85 181.756 115.796C181.776 115.747 181.81 115.706 181.854 115.676L183.225 114.882ZM182.409 117.912L183.197 117.455C183.388 117.348 183.549 117.194 183.665 117.009C183.789 116.79 183.849 116.542 183.839 116.291C183.839 115.997 183.78 115.828 183.665 115.78C183.585 115.76 183.5 115.759 183.419 115.777C183.338 115.795 183.262 115.831 183.197 115.883L182.409 116.34V117.912Z" fill="#FAFAFA"/>
<path d="M186.81 112.809C186.864 112.777 186.908 112.777 186.935 112.809C186.97 112.858 186.994 112.914 187.006 112.972L188.262 117.227C188.262 117.227 188.262 117.259 188.262 117.276C188.261 117.336 188.246 117.396 188.219 117.45C188.2 117.499 188.165 117.541 188.121 117.569L187.751 117.781C187.686 117.82 187.637 117.825 187.609 117.781C187.583 117.754 187.564 117.72 187.555 117.684L187.332 116.938L185.7 117.874L185.482 118.875C185.467 118.929 185.447 118.982 185.423 119.033C185.396 119.099 185.345 119.153 185.281 119.185L184.911 119.397C184.897 119.409 184.88 119.415 184.862 119.415C184.844 119.415 184.827 119.409 184.813 119.397C184.785 119.362 184.771 119.317 184.775 119.272C184.772 119.252 184.772 119.232 184.775 119.212L186.026 113.511C186.041 113.427 186.065 113.345 186.097 113.266C186.124 113.209 186.167 113.162 186.222 113.13L186.81 112.809ZM187.093 116.106L186.549 114.186L186.005 116.753L187.093 116.106Z" fill="#FAFAFA"/>
<path d="M190.166 110.791C190.348 110.676 190.555 110.607 190.77 110.59C190.922 110.576 191.074 110.61 191.205 110.688C191.324 110.765 191.417 110.877 191.472 111.009C191.531 111.143 191.564 111.287 191.57 111.433C191.573 111.493 191.56 111.554 191.532 111.607C191.512 111.656 191.478 111.698 191.434 111.727L191.075 111.933C191.015 111.966 190.971 111.972 190.944 111.933C190.91 111.911 190.882 111.881 190.862 111.846C190.841 111.797 190.809 111.753 190.77 111.717C190.731 111.68 190.684 111.652 190.634 111.634C190.468 111.611 190.3 111.654 190.166 111.754C190.078 111.811 189.994 111.874 189.916 111.944C189.835 112.019 189.764 112.103 189.704 112.195C189.646 112.283 189.598 112.378 189.562 112.477C189.53 112.572 189.514 112.671 189.513 112.771C189.507 112.863 189.524 112.954 189.562 113.038C189.579 113.067 189.603 113.092 189.631 113.11C189.659 113.128 189.692 113.138 189.725 113.141C189.826 113.159 189.929 113.159 190.03 113.141L190.503 113.038C190.68 112.985 190.864 112.963 191.047 112.972C191.179 112.972 191.306 113.014 191.412 113.092C191.511 113.176 191.583 113.288 191.619 113.413C191.672 113.589 191.696 113.773 191.689 113.957C191.689 114.2 191.654 114.442 191.586 114.675C191.52 114.915 191.423 115.145 191.298 115.361C191.166 115.581 191.009 115.786 190.83 115.97C190.647 116.16 190.438 116.323 190.21 116.454C190.042 116.556 189.858 116.628 189.666 116.666C189.509 116.696 189.347 116.683 189.198 116.628C189.062 116.565 188.949 116.46 188.877 116.329C188.788 116.161 188.739 115.975 188.735 115.785C188.735 115.723 188.748 115.662 188.773 115.605C188.798 115.559 188.833 115.52 188.877 115.491L189.236 115.284C189.29 115.252 189.334 115.241 189.366 115.257C189.399 115.274 189.421 115.301 189.443 115.35C189.465 115.406 189.494 115.459 189.53 115.508C189.563 115.555 189.611 115.591 189.666 115.611C189.737 115.627 189.812 115.627 189.883 115.611C189.999 115.584 190.109 115.538 190.21 115.475C190.315 115.415 190.415 115.346 190.509 115.268C190.692 115.123 190.837 114.937 190.933 114.724C190.977 114.615 190.999 114.499 190.998 114.381C191.004 114.339 191 114.296 190.988 114.254C190.976 114.213 190.955 114.175 190.928 114.142C190.898 114.116 190.864 114.097 190.826 114.086C190.788 114.074 190.749 114.071 190.71 114.077C190.587 114.082 190.464 114.102 190.346 114.137C190.204 114.169 190.041 114.207 189.851 114.24C189.705 114.276 189.554 114.287 189.404 114.273C189.287 114.265 189.175 114.217 189.089 114.137C188.995 114.044 188.929 113.928 188.899 113.799C188.855 113.61 188.835 113.417 188.839 113.223C188.838 112.983 188.873 112.745 188.942 112.516C189.007 112.279 189.102 112.053 189.225 111.841C189.343 111.631 189.485 111.435 189.649 111.259C189.799 111.079 189.973 110.922 190.166 110.791Z" fill="#FAFAFA"/>
<path d="M193.74 108.735C193.921 108.616 194.129 108.545 194.344 108.528C194.496 108.515 194.648 108.549 194.779 108.626C194.896 108.705 194.986 108.817 195.04 108.947C195.1 109.081 195.133 109.225 195.138 109.371C195.145 109.432 195.131 109.493 195.1 109.545C195.081 109.595 195.047 109.636 195.002 109.665L194.643 109.872C194.589 109.904 194.545 109.915 194.513 109.872C194.478 109.85 194.451 109.817 194.437 109.779C194.387 109.684 194.304 109.61 194.203 109.572C194.122 109.561 194.039 109.565 193.959 109.586C193.88 109.606 193.806 109.642 193.74 109.692C193.649 109.748 193.564 109.811 193.485 109.883C193.406 109.957 193.336 110.041 193.278 110.133C193.218 110.22 193.17 110.315 193.136 110.416C193.103 110.51 193.084 110.609 193.082 110.709C193.076 110.801 193.092 110.893 193.131 110.976C193.148 111.005 193.171 111.03 193.2 111.048C193.228 111.066 193.261 111.077 193.294 111.079C193.395 111.097 193.498 111.097 193.599 111.079L194.072 110.976C194.249 110.927 194.433 110.905 194.616 110.911C194.747 110.91 194.876 110.952 194.981 111.03C195.08 111.115 195.154 111.227 195.193 111.351C195.241 111.529 195.263 111.712 195.258 111.895C195.258 112.138 195.223 112.38 195.155 112.613C195.088 112.853 194.991 113.084 194.866 113.299C194.735 113.522 194.578 113.728 194.399 113.914C194.215 114.099 194.008 114.26 193.784 114.392C193.616 114.494 193.432 114.566 193.24 114.604C193.085 114.634 192.925 114.621 192.777 114.566C192.639 114.505 192.524 114.4 192.451 114.267C192.362 114.1 192.315 113.913 192.315 113.723C192.309 113.663 192.322 113.602 192.353 113.549C192.372 113.5 192.407 113.458 192.451 113.429L192.81 113.223C192.864 113.19 192.913 113.179 192.941 113.196C192.96 113.204 192.976 113.217 192.989 113.233C193.003 113.249 193.012 113.268 193.017 113.288C193.041 113.343 193.071 113.396 193.104 113.446C193.14 113.494 193.189 113.53 193.245 113.549C193.317 113.566 193.391 113.566 193.463 113.549C193.578 113.522 193.689 113.476 193.789 113.413C193.892 113.352 193.99 113.282 194.083 113.206C194.179 113.132 194.263 113.044 194.333 112.945C194.404 112.851 194.462 112.749 194.507 112.641C194.551 112.532 194.573 112.415 194.573 112.298C194.578 112.255 194.574 112.212 194.562 112.171C194.55 112.13 194.529 112.092 194.502 112.059C194.473 112.033 194.438 112.013 194.4 112.002C194.363 111.991 194.323 111.988 194.284 111.993C194.163 112.001 194.043 112.021 193.925 112.053C193.784 112.086 193.615 112.124 193.43 112.156C193.283 112.193 193.13 112.204 192.979 112.189C192.861 112.183 192.749 112.135 192.663 112.053C192.571 111.96 192.507 111.844 192.478 111.716C192.43 111.529 192.408 111.337 192.413 111.145C192.415 110.903 192.45 110.664 192.516 110.432C192.584 110.197 192.679 109.97 192.799 109.757C192.917 109.546 193.061 109.35 193.229 109.175C193.375 109.003 193.548 108.854 193.74 108.735Z" fill="#FAFAFA"/>
<path d="M197.706 109.415L197.265 112.02C197.252 112.099 197.23 112.176 197.2 112.249C197.179 112.308 197.139 112.357 197.086 112.39L196.672 112.63C196.618 112.662 196.58 112.662 196.553 112.63C196.516 112.585 196.495 112.53 196.493 112.472L195.84 107.875C195.84 107.875 195.84 107.832 195.84 107.815C195.842 107.755 195.857 107.695 195.884 107.641C195.904 107.593 195.938 107.551 195.982 107.522L196.357 107.304C196.388 107.291 196.423 107.291 196.455 107.304C196.487 107.304 196.509 107.348 196.52 107.435L196.95 110.53L197.325 108.207C197.335 108.149 197.351 108.093 197.374 108.038C197.396 107.97 197.442 107.911 197.505 107.875L197.924 107.63C197.983 107.598 198.027 107.603 198.054 107.63C198.078 107.665 198.094 107.704 198.103 107.745L198.484 109.632L198.914 106.042C198.919 105.971 198.939 105.903 198.974 105.841C198.999 105.8 199.032 105.765 199.071 105.737L199.447 105.52C199.461 105.509 199.478 105.503 199.496 105.503C199.513 105.503 199.531 105.509 199.545 105.52C199.56 105.538 199.572 105.558 199.579 105.581C199.587 105.603 199.59 105.627 199.588 105.65C199.59 105.672 199.59 105.694 199.588 105.716L198.935 111.063C198.925 111.141 198.904 111.218 198.876 111.292C198.851 111.35 198.809 111.399 198.756 111.433L198.337 111.672C198.288 111.7 198.25 111.7 198.223 111.672C198.195 111.622 198.173 111.569 198.158 111.515L197.706 109.415Z" fill="#FAFAFA"/>
<path d="M200.252 107.108C200.264 106.807 200.3 106.506 200.361 106.211C200.423 105.921 200.518 105.64 200.644 105.373C200.764 105.113 200.917 104.869 201.101 104.649C201.287 104.431 201.509 104.247 201.759 104.105C201.95 103.975 202.175 103.902 202.406 103.893C202.579 103.895 202.745 103.963 202.869 104.084C203 104.232 203.095 104.409 203.146 104.6C203.216 104.85 203.255 105.108 203.26 105.367C203.26 105.465 203.26 105.574 203.26 105.694C203.26 105.813 203.26 105.939 203.26 106.069C203.26 106.2 203.26 106.325 203.26 106.444C203.26 106.564 203.26 106.678 203.26 106.782C203.248 107.082 203.212 107.38 203.151 107.674C203.089 107.962 202.996 108.243 202.874 108.512C202.75 108.771 202.595 109.014 202.412 109.235C202.226 109.451 202.005 109.635 201.759 109.779C201.563 109.908 201.335 109.982 201.101 109.991C201.016 109.993 200.932 109.978 200.853 109.946C200.775 109.914 200.703 109.867 200.644 109.806C200.502 109.654 200.404 109.466 200.361 109.262C200.296 109.012 200.259 108.754 200.252 108.495C200.252 108.397 200.252 108.289 200.252 108.169C200.252 108.049 200.252 107.924 200.252 107.794C200.252 107.663 200.252 107.543 200.252 107.418C200.252 107.293 200.246 107.206 200.252 107.108ZM202.569 105.808C202.581 105.675 202.567 105.541 202.525 105.414C202.484 105.286 202.418 105.169 202.33 105.068C202.189 104.943 201.993 104.948 201.759 105.068C201.505 105.217 201.303 105.442 201.182 105.71C201.028 106.027 200.946 106.375 200.943 106.727C200.943 106.929 200.943 107.152 200.943 107.396C200.943 107.641 200.943 107.859 200.943 108.055C200.931 108.188 200.946 108.322 200.987 108.449C201.028 108.576 201.094 108.694 201.182 108.795C201.324 108.914 201.519 108.903 201.759 108.767C202.009 108.617 202.208 108.395 202.33 108.131C202.484 107.816 202.566 107.47 202.569 107.119C202.569 106.912 202.569 106.689 202.569 106.444C202.569 106.2 202.575 106.004 202.569 105.808Z" fill="#FAFAFA"/>
<path d="M205.632 101.935C206.062 101.69 206.383 101.652 206.606 101.831C206.738 101.977 206.836 102.15 206.894 102.338C206.951 102.526 206.966 102.725 206.938 102.919C206.942 103.289 206.885 103.657 206.769 104.007C206.658 104.334 206.487 104.637 206.263 104.9L206.97 106.439C206.972 106.464 206.972 106.49 206.97 106.515C206.97 106.564 206.959 106.613 206.938 106.657C206.923 106.696 206.896 106.73 206.861 106.755L206.426 107.005C206.355 107.043 206.307 107.048 206.274 107.005C206.245 106.976 206.221 106.943 206.203 106.907L205.534 105.454L204.854 105.846V107.685C204.855 107.745 204.842 107.804 204.816 107.859C204.794 107.906 204.76 107.947 204.718 107.979L204.305 108.218C204.291 108.229 204.274 108.236 204.256 108.236C204.238 108.236 204.22 108.229 204.207 108.218C204.191 108.201 204.179 108.182 204.172 108.16C204.164 108.138 204.161 108.116 204.163 108.093V103.006C204.165 102.946 204.18 102.886 204.207 102.832C204.226 102.783 204.26 102.741 204.305 102.713L205.632 101.935ZM204.865 104.861L205.632 104.448C205.819 104.343 205.98 104.196 206.1 104.018C206.226 103.809 206.286 103.566 206.274 103.322C206.274 103.028 206.214 102.865 206.1 102.832C205.934 102.81 205.766 102.853 205.632 102.952L204.892 103.376L204.865 104.861Z" fill="#FAFAFA"/>
<path d="M209.277 99.8403C209.474 99.7115 209.7 99.633 209.935 99.6118C210.105 99.6056 210.271 99.6661 210.397 99.7805C210.542 99.932 210.641 100.12 210.686 100.324C210.759 100.594 210.799 100.872 210.805 101.151C210.805 101.532 210.805 101.924 210.805 102.321C210.794 102.645 210.754 102.967 210.686 103.284C210.624 103.578 210.529 103.865 210.403 104.138C210.281 104.389 210.128 104.623 209.946 104.834C209.764 105.051 209.547 105.234 209.304 105.378L208.015 106.08C208.001 106.092 207.984 106.098 207.966 106.098C207.948 106.098 207.931 106.092 207.917 106.08C207.901 106.064 207.889 106.044 207.881 106.022C207.874 106.001 207.871 105.978 207.873 105.955V100.868C207.875 100.808 207.89 100.749 207.917 100.694C207.936 100.645 207.97 100.603 208.015 100.575L209.277 99.8403ZM210.115 101.532C210.112 101.385 210.09 101.238 210.049 101.097C210.024 100.99 209.969 100.892 209.892 100.814C209.857 100.78 209.817 100.753 209.772 100.735C209.727 100.718 209.679 100.709 209.63 100.711C209.494 100.72 209.363 100.765 209.25 100.841L208.564 101.233V104.78L209.277 104.372C209.415 104.292 209.538 104.189 209.641 104.067C209.743 103.948 209.829 103.816 209.897 103.676C209.965 103.526 210.016 103.369 210.049 103.208C210.087 103.04 210.109 102.868 210.115 102.696C210.131 102.299 210.131 101.913 210.115 101.532Z" fill="#FAFAFA"/>
<path d="M134.575 20.8842C135.514 21.0931 136.418 21.4338 137.262 21.896C138.07 22.3303 138.794 22.905 139.4 23.5933C139.98 24.2554 140.41 25.0347 140.662 25.8781C140.919 26.7809 140.937 27.7348 140.716 28.647C140.57 29.3703 140.284 30.0579 139.873 30.6707C139.498 31.1948 139.051 31.6636 138.546 32.0634C138.049 32.4488 137.52 32.7892 136.963 33.0806L135.396 33.913C134.924 34.1591 134.476 34.4487 134.058 34.7779C133.679 35.0682 133.389 35.4581 133.22 35.904C133.137 36.1077 133 36.2846 132.823 36.4154C132.739 36.4804 132.642 36.5254 132.538 36.5471C132.435 36.5688 132.327 36.5665 132.225 36.5405L129.918 36.0291C129.807 36.0058 129.702 35.9606 129.608 35.8962C129.515 35.8317 129.435 35.7493 129.374 35.6538C129.309 35.5649 129.266 35.462 129.248 35.3533C129.23 35.2446 129.238 35.1332 129.271 35.0282C129.456 34.3138 129.784 33.6441 130.233 33.0589C130.644 32.5412 131.119 32.0786 131.648 31.6826C132.163 31.3055 132.709 30.9725 133.28 30.687C133.824 30.4096 134.368 30.143 134.841 29.8765C135.281 29.6398 135.695 29.3572 136.076 29.0333C136.41 28.7537 136.642 28.3709 136.734 27.9453C136.821 27.5757 136.817 27.1906 136.722 26.823C136.627 26.4555 136.445 26.1163 136.19 25.8346C135.554 25.14 134.704 24.6785 133.775 24.5235C132.056 24.1427 130.605 24.7212 129.423 26.2589C129.309 26.4267 129.165 26.5724 128.999 26.6886C128.811 26.7817 128.594 26.7974 128.395 26.7322L125.941 26.1882C125.766 26.1544 125.612 26.0527 125.512 25.9053C125.458 25.8265 125.422 25.7372 125.406 25.6434C125.39 25.5495 125.395 25.4533 125.419 25.3613C125.628 24.6054 126.016 23.9111 126.551 23.3376C127.154 22.6725 127.87 22.12 128.667 21.7056C129.538 21.25 130.476 20.9377 131.447 20.7808C132.486 20.6117 133.549 20.6468 134.575 20.8842ZM131.969 38.3901C132.185 38.4408 132.372 38.5738 132.491 38.7609C132.61 38.948 132.651 39.1741 132.605 39.391L132.018 42.0566C131.998 42.1683 131.955 42.2744 131.891 42.3682C131.827 42.4619 131.744 42.5411 131.648 42.6006C131.557 42.6634 131.454 42.7065 131.345 42.7271C131.236 42.7477 131.125 42.7454 131.017 42.7203L128.384 42.1165C128.272 42.0976 128.165 42.0548 128.071 41.9909C127.978 41.9271 127.899 41.8437 127.84 41.7466C127.779 41.6547 127.737 41.5513 127.718 41.4428C127.698 41.3343 127.701 41.2229 127.726 41.1155L128.319 38.4499C128.369 38.2338 128.502 38.046 128.689 37.9262C128.876 37.8063 129.102 37.764 129.32 37.808L131.969 38.3901Z" fill="#6CBEBF"/>
<path d="M137.48 46.4032C138.135 46.2981 138.801 46.2853 139.46 46.3651C140.089 46.4399 140.7 46.624 141.266 46.9091C141.805 47.1886 142.279 47.5778 142.658 48.0515C143 48.5152 143.24 49.0452 143.363 49.6074C143.487 50.1696 143.492 50.7515 143.376 51.3155C143.273 51.7492 143.106 52.1652 142.881 52.5504C142.665 52.925 142.414 53.2784 142.131 53.6058C141.853 53.9322 141.587 54.2422 141.342 54.5414C141.102 54.8202 140.889 55.1207 140.705 55.439C140.533 55.7181 140.446 56.0414 140.455 56.3693C140.45 56.5225 140.407 56.6721 140.33 56.8045C140.291 56.8655 140.239 56.9174 140.178 56.9568C140.117 56.9962 140.048 57.0222 139.976 57.033L138.344 57.2941C138.268 57.3079 138.19 57.3064 138.114 57.2896C138.039 57.2728 137.967 57.241 137.904 57.1962C137.84 57.1558 137.786 57.1007 137.747 57.0354C137.708 56.9701 137.686 56.8966 137.681 56.8208C137.612 56.3146 137.649 55.7997 137.79 55.3085C137.918 54.8736 138.1 54.4568 138.334 54.0682C138.562 53.6952 138.825 53.3437 139.117 53.0182C139.405 52.6918 139.661 52.3872 139.911 52.0934C140.135 51.8311 140.328 51.5446 140.488 51.2394C140.629 50.9766 140.681 50.6747 140.635 50.3798C140.594 50.1203 140.491 49.8745 140.335 49.6633C140.178 49.4521 139.973 49.2817 139.737 49.1667C139.152 48.8842 138.49 48.8038 137.855 48.9382C137.28 49.0224 136.744 49.2824 136.323 49.6827C135.901 50.083 135.613 50.6039 135.499 51.1741C135.467 51.3112 135.412 51.4419 135.336 51.5603C135.239 51.6636 135.107 51.7275 134.966 51.7398L133.247 52.0173C133.126 52.0404 133.001 52.015 132.899 51.9466C132.847 51.9106 132.803 51.8638 132.77 51.8094C132.737 51.755 132.716 51.6942 132.709 51.631C132.657 51.0912 132.742 50.5472 132.953 50.048C133.169 49.4672 133.485 48.9293 133.889 48.4595C134.332 47.9451 134.853 47.5044 135.434 47.1539C136.061 46.7738 136.756 46.5188 137.48 46.4032ZM140.287 58.2896C140.361 58.2777 140.438 58.2807 140.512 58.2985C140.585 58.3162 140.655 58.3483 140.716 58.393C140.78 58.4351 140.835 58.4903 140.876 58.555C140.917 58.6197 140.945 58.6924 140.956 58.7683L141.26 60.6342C141.284 60.7856 141.247 60.9402 141.157 61.0644C141.068 61.1886 140.933 61.2725 140.782 61.2979L138.959 61.5971C138.808 61.6205 138.654 61.5834 138.529 61.4938C138.466 61.4511 138.413 61.3956 138.373 61.3309C138.332 61.2663 138.306 61.1939 138.296 61.1184L137.991 59.2525C137.977 59.1776 137.979 59.1007 137.997 59.0266C138.015 58.9526 138.048 58.8831 138.094 58.8227C138.137 58.7596 138.192 58.7062 138.257 58.6659C138.322 58.6256 138.394 58.5993 138.47 58.5888L140.287 58.2896Z" fill="#6CBEBF"/>
<g opacity="0.2">
<path d="M137.48 46.4032C138.135 46.2981 138.801 46.2853 139.46 46.3651C140.089 46.4399 140.7 46.624 141.266 46.9091C141.805 47.1886 142.279 47.5778 142.658 48.0515C143 48.5152 143.24 49.0452 143.363 49.6074C143.487 50.1696 143.492 50.7515 143.376 51.3155C143.273 51.7492 143.106 52.1652 142.881 52.5504C142.665 52.925 142.414 53.2784 142.131 53.6058C141.853 53.9322 141.587 54.2422 141.342 54.5414C141.102 54.8202 140.889 55.1207 140.705 55.439C140.533 55.7181 140.446 56.0414 140.455 56.3693C140.45 56.5225 140.407 56.6721 140.33 56.8045C140.291 56.8655 140.239 56.9174 140.178 56.9568C140.117 56.9962 140.048 57.0222 139.976 57.033L138.344 57.2941C138.268 57.3079 138.19 57.3064 138.114 57.2896C138.039 57.2728 137.967 57.241 137.904 57.1962C137.84 57.1558 137.786 57.1007 137.747 57.0354C137.708 56.9701 137.686 56.8966 137.681 56.8208C137.612 56.3146 137.649 55.7997 137.79 55.3085C137.918 54.8736 138.1 54.4568 138.334 54.0682C138.562 53.6952 138.825 53.3437 139.117 53.0182C139.405 52.6918 139.661 52.3872 139.911 52.0934C140.135 51.8311 140.328 51.5446 140.488 51.2394C140.629 50.9766 140.681 50.6747 140.635 50.3798C140.594 50.1203 140.491 49.8745 140.335 49.6633C140.178 49.4521 139.973 49.2817 139.737 49.1667C139.152 48.8842 138.49 48.8038 137.855 48.9382C137.28 49.0224 136.744 49.2824 136.323 49.6827C135.901 50.083 135.613 50.6039 135.499 51.1741C135.467 51.3112 135.412 51.4419 135.336 51.5603C135.239 51.6636 135.107 51.7275 134.966 51.7398L133.247 52.0173C133.126 52.0404 133.001 52.015 132.899 51.9466C132.847 51.9106 132.803 51.8638 132.77 51.8094C132.737 51.755 132.716 51.6942 132.709 51.631C132.657 51.0912 132.742 50.5472 132.953 50.048C133.169 49.4672 133.485 48.9293 133.889 48.4595C134.332 47.9451 134.853 47.5044 135.434 47.1539C136.061 46.7738 136.756 46.5188 137.48 46.4032ZM140.287 58.2896C140.361 58.2777 140.438 58.2807 140.512 58.2985C140.585 58.3162 140.655 58.3483 140.716 58.393C140.78 58.4351 140.835 58.4903 140.876 58.555C140.917 58.6197 140.945 58.6924 140.956 58.7683L141.26 60.6342C141.284 60.7856 141.247 60.9402 141.157 61.0644C141.068 61.1886 140.933 61.2725 140.782 61.2979L138.959 61.5971C138.808 61.6205 138.654 61.5834 138.529 61.4938C138.466 61.4511 138.413 61.3956 138.373 61.3309C138.332 61.2663 138.306 61.1939 138.296 61.1184L137.991 59.2525C137.977 59.1776 137.979 59.1007 137.997 59.0266C138.015 58.9526 138.048 58.8831 138.094 58.8227C138.137 58.7596 138.192 58.7062 138.257 58.6659C138.322 58.6256 138.394 58.5993 138.47 58.5888L140.287 58.2896Z" fill="black"/>
</g>
<path d="M152.864 49.3354C152.938 49.3869 153.001 49.4531 153.049 49.5298C153.096 49.6065 153.128 49.6921 153.141 49.7814C153.159 49.8699 153.157 49.9611 153.138 50.0491C153.118 50.1371 153.08 50.2201 153.027 50.2928L151.732 52.1152C151.681 52.1894 151.615 52.2522 151.538 52.2999C151.461 52.3476 151.376 52.3792 151.286 52.3926C151.198 52.41 151.107 52.4087 151.019 52.3891C150.931 52.3694 150.848 52.3317 150.775 52.2784L148.991 51.0109C148.916 50.96 148.854 50.8939 148.807 50.817C148.76 50.7401 148.73 50.6542 148.719 50.5648C148.701 50.4763 148.703 50.3852 148.722 50.2972C148.742 50.2092 148.78 50.1262 148.833 50.0534L150.144 48.231C150.25 48.0833 150.41 47.9834 150.589 47.9528C150.768 47.9223 150.952 47.9636 151.101 48.0678L152.864 49.3354ZM160.393 36.992C161.044 37.448 161.623 37.998 162.112 38.624C162.589 39.2064 162.958 39.8697 163.2 40.5824C163.426 41.2654 163.502 41.989 163.423 42.704C163.331 43.4665 163.042 44.1919 162.585 44.8093C162.246 45.3084 161.809 45.734 161.301 46.0605C160.855 46.3406 160.369 46.5533 159.86 46.6915C159.364 46.8211 158.858 46.9085 158.347 46.9526L156.9 47.0832C156.467 47.1179 156.037 47.1925 155.617 47.3062C155.229 47.3942 154.874 47.5904 154.594 47.872C154.467 48.0007 154.307 48.0912 154.131 48.1331C154.048 48.1571 153.96 48.1607 153.875 48.1437C153.79 48.1266 153.71 48.0894 153.642 48.0352L152.064 46.9146C151.914 46.8069 151.81 46.6451 151.776 46.463C151.756 46.3748 151.756 46.283 151.778 46.1951C151.8 46.1072 151.842 46.0257 151.901 45.9571C152.27 45.4789 152.73 45.0794 153.256 44.7821C153.729 44.5237 154.233 44.3281 154.757 44.2C155.262 44.0774 155.778 43.9991 156.297 43.9661C156.808 43.9334 157.287 43.8954 157.733 43.8518C158.141 43.8158 158.544 43.7355 158.935 43.6125C159.277 43.4986 159.571 43.2748 159.773 42.976C159.955 42.7237 160.073 42.4312 160.117 42.1233C160.162 41.8155 160.131 41.5015 160.028 41.208C159.771 40.4829 159.279 39.8646 158.63 39.4509C157.455 38.6131 156.173 38.5859 154.784 39.3693C154.644 39.4583 154.49 39.5209 154.327 39.5542C154.243 39.5601 154.158 39.5492 154.078 39.5221C153.997 39.4951 153.923 39.4524 153.859 39.3965L152.184 38.2051C152.123 38.1648 152.071 38.1128 152.031 38.0521C151.991 37.9913 151.963 37.9231 151.95 37.8515C151.937 37.7775 151.939 37.7016 151.957 37.6285C151.975 37.5555 152.008 37.487 152.053 37.4272C152.449 36.9207 152.962 36.5191 153.549 36.2576C154.216 35.9555 154.93 35.7715 155.66 35.7136C156.463 35.6465 157.272 35.7108 158.054 35.904C158.898 36.1075 159.693 36.4773 160.393 36.992Z" fill="#6CBEBF"/>
<g opacity="0.6">
<path d="M152.864 49.3354C152.938 49.3869 153.001 49.4531 153.049 49.5298C153.096 49.6065 153.128 49.6921 153.141 49.7814C153.159 49.8699 153.157 49.9611 153.138 50.0491C153.118 50.1371 153.08 50.2201 153.027 50.2928L151.732 52.1152C151.681 52.1894 151.615 52.2522 151.538 52.2999C151.461 52.3476 151.376 52.3792 151.286 52.3926C151.198 52.41 151.107 52.4087 151.019 52.3891C150.931 52.3694 150.848 52.3317 150.775 52.2784L148.991 51.0109C148.916 50.96 148.854 50.8939 148.807 50.817C148.76 50.7401 148.73 50.6542 148.719 50.5648C148.701 50.4763 148.703 50.3852 148.722 50.2972C148.742 50.2092 148.78 50.1262 148.833 50.0534L150.144 48.231C150.25 48.0833 150.41 47.9834 150.589 47.9528C150.768 47.9223 150.952 47.9636 151.101 48.0678L152.864 49.3354ZM160.393 36.992C161.044 37.448 161.623 37.998 162.112 38.624C162.589 39.2064 162.958 39.8697 163.2 40.5824C163.426 41.2654 163.502 41.989 163.423 42.704C163.331 43.4665 163.042 44.1919 162.585 44.8093C162.246 45.3084 161.809 45.734 161.301 46.0605C160.855 46.3406 160.369 46.5533 159.86 46.6915C159.364 46.8211 158.858 46.9085 158.347 46.9526L156.9 47.0832C156.467 47.1179 156.037 47.1925 155.617 47.3062C155.229 47.3942 154.874 47.5904 154.594 47.872C154.467 48.0007 154.307 48.0912 154.131 48.1331C154.048 48.1571 153.96 48.1607 153.875 48.1437C153.79 48.1266 153.71 48.0894 153.642 48.0352L152.064 46.9146C151.914 46.8069 151.81 46.6451 151.776 46.463C151.756 46.3748 151.756 46.283 151.778 46.1951C151.8 46.1072 151.842 46.0257 151.901 45.9571C152.27 45.4789 152.73 45.0794 153.256 44.7821C153.729 44.5237 154.233 44.3281 154.757 44.2C155.262 44.0774 155.778 43.9991 156.297 43.9661C156.808 43.9334 157.287 43.8954 157.733 43.8518C158.141 43.8158 158.544 43.7355 158.935 43.6125C159.277 43.4986 159.571 43.2748 159.773 42.976C159.955 42.7237 160.073 42.4312 160.117 42.1233C160.162 41.8155 160.131 41.5015 160.028 41.208C159.771 40.4829 159.279 39.8646 158.63 39.4509C157.455 38.6131 156.173 38.5859 154.784 39.3693C154.644 39.4583 154.49 39.5209 154.327 39.5542C154.243 39.5601 154.158 39.5492 154.078 39.5221C153.997 39.4951 153.923 39.4524 153.859 39.3965L152.184 38.2051C152.123 38.1648 152.071 38.1128 152.031 38.0521C151.991 37.9913 151.963 37.9231 151.95 37.8515C151.937 37.7775 151.939 37.7016 151.957 37.6285C151.975 37.5555 152.008 37.487 152.053 37.4272C152.449 36.9207 152.962 36.5191 153.549 36.2576C154.216 35.9555 154.93 35.7715 155.66 35.7136C156.463 35.6465 157.272 35.7108 158.054 35.904C158.898 36.1075 159.693 36.4773 160.393 36.992Z" fill="white"/>
</g>
<path d="M112.352 97.4902H93.0239V50.6627C93.0239 46.5955 94.6396 42.6949 97.5155 39.819C100.391 36.943 104.292 35.3274 108.359 35.3274H110.144C114.211 35.3274 118.111 36.943 120.987 39.819C123.863 42.6949 125.479 46.5955 125.479 50.6627V84.3907C125.472 87.8674 124.086 91.1993 121.625 93.6551C119.164 96.111 115.829 97.4903 112.352 97.4902Z" fill="#263238"/>
<path d="M91.1418 210.223C90.8 212.164 90.618 214.129 90.5978 216.099C90.5271 219.667 89.8743 220.935 89.7873 223.861C89.6839 227.207 90.266 228.458 91.6206 230.34C92.9751 232.223 96.5166 233.925 98.0506 230.749C99.5847 227.572 99.3617 225.488 98.8775 222.208C98.3825 218.813 98.3335 216.936 98.0289 214.352C97.7786 212.073 97.4849 210.338 97.4849 210.338L91.1418 210.223Z" fill="#263238"/>
<path d="M101.271 186.521L89.5205 186.309C89.6946 194.154 90.9403 202.863 91.1525 210.245C91.196 211.632 91.1199 221.011 91.6421 223.845C92.4309 228.132 97.5119 227.55 97.7839 224.988C98.0559 222.425 97.4575 211.475 97.4738 210.343C97.4248 205.621 99.6498 197.652 100.798 189.176C100.847 188.768 101.217 186.929 101.271 186.521Z" fill="#FFA8A7"/>
<path d="M116.367 204.12C116.367 204.12 115.905 203.869 115.823 204.365C115.709 204.952 115.535 206.165 115.279 207.133C114.942 208.477 114.659 210.691 114.86 211.79C115.062 212.889 117.618 214.292 119.278 214.804C121.322 215.435 123.187 216.545 124.718 218.041C126.35 219.586 129.902 221.044 132.334 221.027C135.19 221.027 137.181 220.075 138.122 218.547C139.063 217.018 137.262 216.833 133.998 214.739L131.469 213.107C126.295 209.728 124.397 207.922 122.944 204.544L116.367 204.12Z" fill="#263238"/>
<path d="M122.987 202.025C122.9 199.599 124.576 178.976 124.576 178.976L113.418 184.062C115.807 198.326 116.318 201.693 116.356 204.027C116.307 204.223 116.287 204.424 116.296 204.626C116.296 207.395 119.435 208.891 121.872 210.74C123.944 212.363 126.152 213.805 128.471 215.049C130.244 215.935 133.846 216.017 134.292 214.88C131.321 212.612 127.002 209.217 124.641 206.628C123.488 205.409 123.074 204.457 122.987 202.025Z" fill="#FFA8A7"/>
<path d="M94.3349 109.975C90.0482 119.381 90.0482 126.66 90.7608 138.666C91.3919 149.682 92.4418 159.392 92.4418 159.392C92.2786 161.345 89.564 165.158 89.2104 173.797C88.884 181.87 89.7544 192.135 89.7544 192.135C89.7544 192.135 95.8527 195.514 100.362 192.103C100.362 192.103 104.714 171.327 105.987 161.22C107.075 152.402 109.034 141.135 109.034 141.135L113.152 161.16C112.263 164.001 111.619 166.913 111.226 169.864C110.649 175.81 113.979 187.484 113.979 187.484C113.979 187.484 120.278 189.361 124.124 185.95C124.124 185.95 125.561 166.97 126.099 159.811C126.817 150.22 125.305 124.261 124.124 110.514L94.3349 109.975Z" fill="#455A64"/>
<path d="M109.045 141.119L110.737 126.028C110.737 126.028 118.32 125.017 121.758 121.785C120.774 123.325 119.463 124.629 117.918 125.605C116.374 126.581 114.633 127.205 112.82 127.432L110.372 141.473L113.152 161.16L109.045 141.119Z" fill="#263238"/>
<path d="M139.754 106.265C140.067 103.511 140.205 100.74 140.167 97.969C139.998 95.5754 139.569 95.1837 136.223 90.9459C131.708 85.2176 127.851 80.0659 123.771 74.9469C120.855 71.2912 117.787 70.7309 114.806 70.8941C112.717 71.0083 116.797 81.056 118.848 87.0019L130.56 99.6119C130.923 100.11 131.089 100.724 131.028 101.336L130.321 112.064L133.829 116.764C133.829 116.764 139.144 112.184 139.754 106.265Z" fill="#FFA8A7"/>
<path d="M103.512 71.2205C101.244 71.3783 97.1203 71.7645 97.1203 71.7645C94.743 73.0919 94.1392 74.1853 93.6985 77.3405C93.5081 78.6896 94.607 82.2746 95.5481 87.3719L97.3325 96.8211L97.1366 101.51C96.2118 104.372 94.1174 107.924 92.2678 113.163C101.353 118.233 108.969 118.423 115.877 117.515C121.143 116.835 123.934 115.562 124.864 114.3C124.668 109.126 124.32 105.928 124.212 100.52C124.173 98.2519 124.309 95.9562 124.402 93.345C127.932 90.44 127.976 85.6093 126.034 82.465C121.557 75.2135 117.199 70.6493 114.316 70.8832L103.512 71.2205Z" fill="#6CBEBF"/>
<path opacity="0.6" d="M103.512 71.2205C101.244 71.3783 97.1203 71.7645 97.1203 71.7645C94.743 73.0919 94.1392 74.1853 93.6985 77.3405C93.5081 78.6896 94.607 82.2746 95.5481 87.3719L97.3325 96.8211L97.1366 101.51C96.2118 104.372 94.1174 107.924 92.2678 113.163C101.353 118.233 108.969 118.423 115.877 117.515C121.143 116.835 123.934 115.562 124.864 114.3C124.668 109.126 124.32 105.928 124.212 100.52C124.173 98.2519 124.309 95.9562 124.402 93.345C127.932 90.44 127.976 85.6093 126.034 82.465C121.557 75.2135 117.199 70.6493 114.316 70.8832L103.512 71.2205Z" fill="white"/>
<path opacity="0.1" d="M117.368 93.4157C117.368 93.4157 113.223 96.6362 108.485 94.9552C107.154 94.536 105.954 93.7804 105.001 92.7616C104.048 91.7429 103.374 90.4954 103.045 89.1399C103.045 89.1399 102.544 94.5527 108.512 96.3968C114.294 98.1757 117.368 93.4157 117.368 93.4157Z" fill="black"/>
<path d="M122.993 56.3638C122.813 64.2192 120.273 66.1558 118.989 66.6998C117.705 67.2438 115.246 66.9174 112.853 66.5203V71.264C112.853 71.264 115.616 74.1581 115.41 76.3178C115.203 78.4774 111.058 78.7222 107.968 76.6061C106.263 75.435 104.721 74.0429 103.382 72.4662C103.125 72.1621 102.984 71.7765 102.985 71.3782V60.2806C102.985 60.2806 101.674 61.6678 99.3562 60.0794C98.8561 59.7602 98.428 59.3406 98.0989 58.847C97.7698 58.3535 97.547 57.7969 97.4447 57.2126C97.3424 56.6283 97.3628 56.0291 97.5045 55.4531C97.6463 54.8771 97.9063 54.3369 98.2682 53.8669C99.28 52.6755 101.848 52.5939 103.077 54.4109C103.773 55.7654 103.866 57.1309 104.644 56.5869C106.711 55.0963 105.601 51.6909 108.098 50.0589C108.918 49.6312 109.769 49.2675 110.644 48.9709C115.1 47.4314 118.962 46.1366 119.892 43.0902C121.644 44.0912 123.211 47.0995 122.993 56.3638Z" fill="#FFA8A7"/>
<path d="M114.207 63.3815C114.778 63.3815 115.241 62.9187 115.241 62.3479C115.241 61.777 114.778 61.3143 114.207 61.3143C113.637 61.3143 113.174 61.777 113.174 62.3479C113.174 62.9187 113.637 63.3815 114.207 63.3815Z" fill="#B16668"/>
<path d="M113.522 55.1725C113.522 55.3853 113.459 55.5934 113.342 55.7709C113.224 55.9485 113.058 56.0877 112.862 56.1714C112.666 56.2551 112.45 56.2796 112.241 56.2419C112.031 56.2041 111.838 56.1058 111.684 55.959C111.529 55.8122 111.422 55.6235 111.374 55.4161C111.326 55.2088 111.34 54.992 111.414 54.7924C111.488 54.5929 111.619 54.4195 111.791 54.2937C111.962 54.1679 112.167 54.0951 112.38 54.0845C112.527 54.0771 112.674 54.0998 112.813 54.1512C112.951 54.2025 113.077 54.2815 113.184 54.3833C113.291 54.485 113.376 54.6075 113.434 54.7432C113.492 54.8788 113.522 55.0249 113.522 55.1725Z" fill="#263238"/>
<path d="M121.764 55.2813C121.775 55.4144 121.759 55.5484 121.718 55.6754C121.677 55.8025 121.611 55.9201 121.524 56.0214C121.437 56.1226 121.33 56.2055 121.211 56.2653C121.091 56.325 120.961 56.3604 120.828 56.3693C120.693 56.3817 120.558 56.3654 120.43 56.3214C120.303 56.2774 120.186 56.2068 120.087 56.1141C119.989 56.0215 119.912 55.9091 119.86 55.7842C119.809 55.6594 119.784 55.525 119.789 55.3901C119.775 55.256 119.788 55.1205 119.828 54.9918C119.869 54.8631 119.935 54.744 120.023 54.6417C120.11 54.5395 120.218 54.4563 120.339 54.3972C120.461 54.338 120.593 54.3043 120.727 54.298C120.862 54.2917 120.996 54.3129 121.123 54.3605C121.249 54.408 121.364 54.4808 121.461 54.5744C121.558 54.668 121.635 54.7804 121.687 54.9048C121.739 55.0291 121.765 55.1628 121.764 55.2976V55.2813Z" fill="#263238"/>
<path d="M112.124 57.9686C111.185 57.9686 110.285 57.5963 109.621 56.9333C108.957 56.2703 108.584 55.371 108.582 54.4326C108.582 52.0282 111.063 52.0282 112.124 52.0282C113.185 52.0282 115.66 52.0282 115.66 54.4326C115.658 55.37 115.285 56.2686 114.622 56.9314C113.96 57.5942 113.061 57.9672 112.124 57.9686ZM112.124 52.5831C109.948 52.5831 109.143 53.127 109.143 54.4326C109.143 55.2262 109.458 55.9872 110.019 56.5483C110.58 57.1094 111.341 57.4246 112.135 57.4246C112.928 57.4246 113.689 57.1094 114.25 56.5483C114.811 55.9872 115.127 55.2262 115.127 54.4326C115.105 53.0998 114.267 52.5831 112.124 52.5831Z" fill="#455A64"/>
<path d="M121.105 57.9686C120.167 57.9686 119.267 57.5963 118.603 56.9333C117.939 56.2703 117.565 55.371 117.564 54.4326C117.564 52.0282 120.044 52.0282 121.105 52.0282C122.166 52.0282 124.641 52.0282 124.641 54.4326C124.64 55.37 124.267 56.2686 123.604 56.9314C122.941 57.5942 122.043 57.9672 121.105 57.9686ZM121.105 52.5831C118.962 52.5831 118.124 53.127 118.124 54.4326C118.124 55.2262 118.439 55.9872 119 56.5483C119.561 57.1094 120.323 57.4246 121.116 57.4246C121.91 57.4246 122.671 57.1094 123.232 56.5483C123.793 55.9872 124.108 55.2262 124.108 54.4326C124.086 53.0998 123.249 52.5831 121.105 52.5831Z" fill="#455A64"/>
<path d="M116.209 53.2903L116.383 59.8999L119.859 58.8227L116.209 53.2903Z" fill="#F28F8F"/>
<path d="M112.847 66.5366C110.323 66.2048 105.128 64.7142 104.317 62.6579C104.644 63.6972 105.279 64.612 106.14 65.28C107.69 66.6128 112.847 68.1088 112.847 68.1088V66.5366Z" fill="#F28F8F"/>
<path d="M112.972 50.0806L110.666 51.4896C110.484 51.173 110.431 50.7985 110.518 50.4439C110.605 50.0893 110.826 49.7819 111.134 49.5856C111.286 49.4933 111.455 49.4327 111.631 49.4077C111.808 49.3826 111.987 49.3936 112.159 49.4398C112.331 49.4861 112.491 49.5668 112.631 49.6769C112.771 49.787 112.887 49.9244 112.972 50.0806Z" fill="#263238"/>
<path d="M122.356 51.6474L119.789 50.7498C119.839 50.5796 119.922 50.4214 120.036 50.2849C120.149 50.1484 120.288 50.0364 120.446 49.9559C120.604 49.8754 120.777 49.828 120.954 49.8168C121.131 49.8055 121.308 49.8305 121.475 49.8903C121.82 50.014 122.103 50.2655 122.267 50.5926C122.431 50.9197 122.463 51.2974 122.356 51.6474Z" fill="#263238"/>
<path d="M115.382 54.7155C115.346 54.7155 115.309 54.7082 115.275 54.6939C115.241 54.6796 115.21 54.6587 115.184 54.6324C115.159 54.606 115.138 54.5748 115.125 54.5405C115.111 54.5062 115.104 54.4695 115.105 54.4327C115.105 53.9811 115.997 53.6874 116.802 53.6874C117.607 53.6874 118.124 53.9811 118.124 54.4327C118.107 54.4918 118.072 54.5438 118.023 54.5808C117.974 54.6178 117.914 54.6378 117.852 54.6378C117.791 54.6378 117.731 54.6178 117.682 54.5808C117.633 54.5438 117.597 54.4918 117.58 54.4327C117.58 54.3783 117.303 54.2423 116.819 54.2423C116.429 54.234 116.041 54.3004 115.676 54.4381C115.676 54.4759 115.669 54.5134 115.654 54.5482C115.639 54.5829 115.617 54.6143 115.589 54.6403C115.562 54.6663 115.529 54.6864 115.494 54.6993C115.458 54.7122 115.42 54.7178 115.382 54.7155Z" fill="#455A64"/>
<path d="M108.871 54.4762H108.838L102.62 53.9322C102.33 53.6442 101.983 53.4184 101.603 53.2685L108.903 53.9431C108.976 53.9526 109.043 53.9903 109.089 54.0483C109.134 54.1062 109.156 54.1797 109.148 54.2531C109.135 54.3169 109.101 54.3742 109.05 54.415C108.999 54.4558 108.936 54.4774 108.871 54.4762Z" fill="#455A64"/>
<path d="M83.3408 60.9607C85.3753 58.2407 86.7625 56.1898 88.6176 53.8887C89.6729 52.5667 90.3475 51.6202 91.3376 50.2656C92.0339 49.3299 92.4256 48.5411 93.2198 48.2528C94.0779 47.9012 94.8512 47.3708 95.4883 46.697C95.8799 46.2637 96.2433 45.8058 96.5763 45.3261C97.7423 43.7567 99.1273 42.3626 100.689 41.1863C102.321 39.9568 104.143 39.0103 105.824 37.8407C106.825 37.1389 107.897 35.9747 106.678 34.8867C106.305 34.572 105.857 34.3568 105.378 34.2611C102.413 33.6192 99.8349 34.6365 96.9353 35.3763C95.6759 35.6907 94.4441 36.1073 93.2525 36.6221C92.6663 36.8539 92.1166 37.169 91.6205 37.5578C90.9267 38.2572 90.3582 39.0705 89.9395 39.9623C88.672 42.2253 85.952 44.249 84.048 46.0387C81.823 48.1331 79.832 50.0535 77.2915 52.36C75.0067 54.4435 72.7709 56.3584 70.6765 58.6323C68.9411 60.5091 69.5885 61.9779 69.8169 62.4893C71.2313 65.3943 72.8144 66.4387 74.7129 68.2394C77.9769 71.3565 89.2649 80.3271 93.0022 83.2919C93.8052 83.9225 94.4358 84.7459 94.8355 85.6855L95.5536 87.3447C99.8185 88.128 102.664 81.7251 99.1331 74.0167C98.5484 72.7701 97.6553 71.6935 96.5382 70.8887C92.0774 67.641 83.3408 60.9607 83.3408 60.9607Z" fill="#FFA8A7"/>
<path d="M83.3407 60.9606C81.9832 62.6306 80.1741 63.875 78.1292 64.5456C78.1292 64.5456 80.8492 65.2419 84.5756 61.8963L83.3407 60.9606Z" fill="#F28F8F"/>
<path d="M138.644 100.591L137.948 99.9927C137.844 99.9241 137.725 99.881 137.601 99.8668C137.477 99.8526 137.352 99.8678 137.235 99.9111L129.679 101.967C129.298 102.094 128.949 102.302 128.656 102.576C128.364 102.85 128.133 103.184 127.981 103.556L122.541 119.239C122.476 119.367 122.45 119.512 122.468 119.654C122.485 119.797 122.545 119.931 122.639 120.039L123.357 120.659C123.462 120.731 123.582 120.777 123.709 120.792C123.835 120.807 123.962 120.791 124.081 120.746L131.648 118.69C132.029 118.563 132.377 118.355 132.67 118.081C132.963 117.807 133.194 117.473 133.345 117.101C134.433 114.017 137.697 104.502 138.785 101.418C138.916 101.032 138.851 100.738 138.644 100.591Z" fill="#455A64"/>
<path d="M123.254 119.843L128.694 104.16C128.845 103.789 129.075 103.455 129.369 103.181C129.662 102.908 130.011 102.702 130.391 102.577L137.942 100.52C138.644 100.33 139.03 100.732 138.78 101.418C137.692 104.502 134.428 114.017 133.34 117.101C133.188 117.473 132.958 117.807 132.665 118.081C132.372 118.355 132.023 118.563 131.643 118.69L124.092 120.768C123.396 120.931 123.02 120.529 123.254 119.843Z" fill="#6CBEBF"/>
<path d="M129.57 103.012C129.177 103.309 128.872 103.708 128.689 104.165L123.249 119.843C123.186 119.968 123.16 120.107 123.174 120.246C123.187 120.384 123.24 120.516 123.325 120.627L122.65 120.05C122.554 119.943 122.492 119.809 122.473 119.666C122.455 119.523 122.481 119.378 122.547 119.25L127.987 103.567C128.159 103.14 128.438 102.766 128.797 102.479L129.57 103.012Z" fill="#37474F"/>
<path d="M136.571 107.739C136.027 109.333 134.14 110.399 131.017 111.139C127.894 111.879 126.17 115.192 126.665 116.198C127.16 117.205 132.208 118.146 134.227 117.858C136.245 117.569 138.269 114.653 138.883 113.75C139.498 112.847 140.205 106.548 139.558 105.683C138.91 104.818 137.545 104.954 137.545 104.954L136.571 107.739Z" fill="#F28F8F"/>
</svg>
