<svg width="364" height="285" viewBox="0 0 364 285" fill="none" xmlns="http://www.w3.org/2000/svg">
<path d="M165.735 167.817C163.787 169.266 161.436 171.594 160.581 174.919C159.964 177.389 160.557 178.837 160.344 182.02C160.201 184.229 159.631 187.34 157.802 191.045C153.646 190.19 146.664 189.359 138.422 191.259C133.506 192.399 129.564 194.18 126.666 195.795C127.117 196.08 127.735 196.413 128.519 196.626C132.96 197.838 137.639 194.109 137.781 194.37C137.924 194.608 132.556 197.125 132.841 199.31C133.031 200.783 135.667 201.566 138.399 202.398C140.702 203.086 142.887 203.751 145.809 203.419C149.822 202.968 152.601 200.949 153.836 199.904C155.024 200.498 156.781 201.281 158.99 201.97C163.051 203.205 168.656 204.915 172.385 202.588C174.808 201.068 175.544 197.505 176.921 190.427C178.584 181.806 179.368 177.484 177.135 173.945C174.214 169.219 168.205 168.126 165.735 167.817Z" fill="white" stroke="#323232" stroke-width="3" stroke-miterlimit="10"/>
<path d="M157.042 191.306C159.916 192.375 162.291 194.322 163.93 196.911C164.168 197.291 164.785 196.935 164.548 196.555C162.814 193.8 160.272 191.757 157.232 190.617C156.781 190.451 156.615 191.14 157.042 191.306Z" fill="#323232"/>
<path d="M141.748 195.985C138.921 196.46 136.641 198.36 135.62 201.02C135.454 201.447 136.143 201.637 136.309 201.21C137.235 198.787 139.373 197.101 141.938 196.674C142.389 196.602 142.199 195.914 141.748 195.985Z" fill="#323232"/>
<path d="M145.072 198.36C144.051 198.977 143.101 199.69 142.199 200.45C141.605 200.972 140.94 201.59 141.082 202.445C141.439 204.701 144.146 204.202 145.619 203.632C146.046 203.466 145.856 202.777 145.429 202.944C144.787 203.181 144.075 203.49 143.386 203.466C142.27 203.419 141.272 202.35 142.222 201.376C143.125 200.426 144.312 199.666 145.429 198.954C145.809 198.716 145.452 198.099 145.072 198.36Z" fill="#323232"/>
<path d="M187.894 138.581C186.682 138.985 185.139 139.602 183.405 140.457C182.906 140.695 181.647 141.336 180.294 142.215C178.204 143.545 176.684 144.946 174.95 146.704C172.741 148.96 170.509 151.216 167.849 154.826C165.616 157.866 162.149 162.64 159.655 169.646C158.657 172.425 158.087 174.824 157.755 176.534C159.061 175.774 160.249 175.394 161.175 175.18C166.519 173.969 171.649 176.676 176.517 179.217C178.346 180.167 179.795 181.094 180.792 181.735C181.315 179.17 181.837 176.581 182.36 174.016C182.811 171.855 183.239 169.67 183.69 167.509C184.379 166.915 185.305 166.036 186.326 164.896C188.25 162.711 192.074 158.365 192.596 152.332C193.237 145.374 189.105 140.054 187.894 138.581Z" fill="url(#paint0_linear_33_268)"/>
<path d="M186.492 138.866C183.951 139.246 181.766 140.6 179.795 142.167C177.515 143.949 175.377 145.92 173.382 148.01C169.488 152.047 166.091 156.56 163.289 161.429C163.051 161.832 163.669 162.189 163.906 161.785C166.614 157.082 169.844 152.712 173.596 148.794C175.425 146.894 177.349 145.089 179.367 143.402C181.529 141.621 183.832 139.959 186.682 139.531C187.134 139.484 186.944 138.795 186.492 138.866Z" fill="#323232"/>
<path d="M185.495 164.801C183.738 166.583 181.933 168.316 180.104 170.003C179.771 170.311 180.27 170.81 180.603 170.501C182.431 168.815 184.236 167.081 185.994 165.3C186.303 164.967 185.804 164.469 185.495 164.801Z" fill="#323232"/>
<path d="M183.025 168.055C182.194 172.615 181.386 177.199 180.555 181.759C180.721 181.687 180.911 181.616 181.078 181.545C177.301 178.909 173.098 176.937 168.633 175.702C165.141 174.753 160.7 173.826 157.707 176.462C157.375 176.771 157.874 177.27 158.206 176.961C161.246 174.254 166.163 175.679 169.606 176.724C173.573 177.935 177.301 179.787 180.698 182.139C180.888 182.257 181.173 182.139 181.22 181.925C182.051 177.365 182.859 172.781 183.69 168.221C183.785 167.794 183.096 167.604 183.025 168.055Z" fill="#323232"/>
<path d="M163.455 161.096C160.985 165.917 157.897 170.881 157.684 176.462C157.66 176.914 158.372 176.914 158.396 176.462C158.61 171.024 161.65 166.179 164.073 161.452C164.263 161.049 163.645 160.692 163.455 161.096Z" fill="#323232"/>
<path opacity="0.4" d="M184.569 152.119C180.317 160.574 178.014 167.699 176.66 172.686C174.689 180.001 174 185.773 168.894 190.57C168.062 191.354 165.616 193.61 161.769 195.011C153.694 197.933 147.709 193.99 142.626 198.17C142.056 198.645 140.37 199.833 140.56 201.186C140.75 202.469 142.508 203.134 142.769 203.253C144.859 204.06 147.02 203.229 149.727 202.136C152.791 200.901 152.459 200.474 153.836 200.236C156.734 199.738 158.064 201.566 161.911 202.778C163.55 203.276 168.395 204.796 171.886 202.778C174.451 201.281 175.235 198.479 176.47 193.753C177.325 190.546 178.204 185.868 178.061 179.978C179.011 180.714 179.961 181.45 180.911 182.186C182.146 172.164 183.357 162.141 184.569 152.119Z" fill="#7B7B7B"/>
<path opacity="0.38" d="M183.144 162.403C179.89 168.554 178.299 173.755 177.444 177.27C175.734 184.324 176.28 187.649 173.953 192.612C171.459 198.004 167.421 201.424 164.619 203.371C166.186 203.727 169.963 204.392 172.694 202.255C174.618 200.759 175.116 198.621 175.852 195.13C176.779 190.831 177.752 185.939 178.702 180.571C179.439 181.046 180.175 181.521 180.911 181.996C181.671 175.489 182.407 168.934 183.144 162.403Z" fill="#7B7B7B"/>
<path d="M187.395 138.106C186.54 143.687 185.709 149.316 184.901 154.969C181.766 176.89 179.059 198.431 176.779 219.616C176.826 220.329 177.016 221.469 177.729 222.609C178.441 223.772 179.391 224.366 179.843 224.675C184.165 227.762 186.326 229.33 188.511 230.375C198.985 235.434 210.575 234.84 210.575 234.84C213.021 234.721 217.89 234.412 223.115 232.322C223.4 232.204 225.395 231.277 229.385 229.401C232.995 227.715 233.636 227.382 234.515 226.575C236.605 224.651 237.413 222.276 237.959 220.59C239.123 217.004 239.004 213.964 238.956 213.227C238.956 213.227 238.719 207.314 238.553 172.781C238.529 165.751 239.218 155.42 242.923 142.666C239.075 140.79 235.465 139.056 231.119 136.966C228.126 135.517 225.348 134.187 221.358 133.712C220.218 133.57 219.196 133.522 217.676 133.546C211.501 133.594 206.419 134.544 204.234 134.924C199.983 135.612 194.235 136.657 187.395 138.106Z" fill="url(#paint1_linear_33_268)"/>
<path d="M187.205 138.938C194.568 137.37 202.001 136.111 209.459 135.185C209.791 135.137 209.981 134.71 209.649 134.52C209.554 134.472 209.459 134.401 209.34 134.354C208.936 134.116 208.58 134.734 208.984 134.971C209.079 135.019 209.174 135.09 209.293 135.137C209.364 134.924 209.411 134.686 209.483 134.472C201.954 135.399 194.449 136.657 187.039 138.249C186.564 138.344 186.754 139.033 187.205 138.938Z" fill="#323232"/>
<path d="M184.996 151.382C182.384 170.002 180.009 188.646 177.871 207.337C177.61 209.689 177.349 212.016 177.088 214.367C176.874 216.41 176.28 218.714 176.541 220.756C176.779 222.561 178.204 223.701 179.51 224.794C180.935 225.981 182.431 227.097 183.999 228.119C190.435 232.275 197.964 234.769 205.611 235.22C214.708 235.742 223.851 233.415 231.618 228.665C231.998 228.427 231.641 227.81 231.261 228.047C217.676 236.336 200.386 236.669 186.54 228.807C184.949 227.905 183.405 226.907 181.933 225.815C180.436 224.699 178.014 223.179 177.396 221.35C177.111 220.471 177.254 219.497 177.349 218.571C177.468 217.407 177.61 216.22 177.729 215.056C177.966 212.871 178.204 210.686 178.465 208.501C179.486 199.595 180.531 190.712 181.671 181.83C182.954 171.736 184.284 161.642 185.709 151.572C185.756 151.121 185.068 150.931 184.996 151.382Z" fill="#323232"/>
<path d="M219.98 133.499C224.16 134.33 228.079 136.254 231.974 137.892C235.798 139.508 240.049 140.814 243.421 143.284C243.801 143.545 244.158 142.928 243.778 142.666C240.476 140.244 236.32 138.961 232.591 137.394C228.554 135.707 224.493 133.689 220.17 132.81C219.719 132.715 219.529 133.404 219.98 133.499Z" fill="#323232"/>
<path d="M238.6 173.779C238.22 183.778 237.84 193.776 238.196 203.751C238.363 208.596 239.122 213.631 238.22 218.453C237.46 222.419 235.228 226.385 231.261 227.858C230.834 228.024 231.024 228.713 231.451 228.546C237.769 226.195 239.407 218.999 239.312 212.966C239.265 208.881 238.909 204.796 238.814 200.688C238.719 196.508 238.766 192.351 238.837 188.171C238.932 183.374 239.122 178.576 239.289 173.779C239.336 173.304 238.624 173.304 238.6 173.779Z" fill="#323232"/>
<path opacity="0.38" d="M235.18 168.15C233.921 172.473 231.95 177.199 228.91 181.901C215.301 202.825 190.388 207.005 184.023 207.884C192.573 208.786 201.218 209.76 209.958 210.805C219.6 211.945 229.124 213.156 238.505 214.391C237.911 203.775 237.911 195.035 238.054 188.789C238.315 175.869 239.241 165.419 237.555 165.086C237.151 164.991 236.439 165.443 235.18 168.15Z" fill="#7B7B7B"/>
<path opacity="0.42" d="M238.101 175.916C237.246 178.434 235.94 181.996 234.016 186.105C231.309 191.924 228.72 197.529 225.371 200.973C216.014 210.591 197.726 206.435 197.679 207.1C197.655 207.48 204.352 208.549 238.172 211.66C238.172 199.738 238.149 187.839 238.101 175.916Z" fill="#7B7B7B"/>
<path d="M280.709 273.838C193.546 262.2 106.36 250.563 19.1975 238.949C44.9188 224.034 70.6638 209.119 96.385 194.204C175.021 201.946 253.681 209.712 332.317 217.455C315.099 236.241 297.904 255.051 280.709 273.838Z" fill="white" stroke="#323232" stroke-width="3" stroke-miterlimit="10"/>
<path d="M18.3425 240.968C105.719 252.558 193.095 264.148 280.448 275.738" stroke="#323232" stroke-width="16" stroke-miterlimit="10"/>
<path d="M278.785 276.26C297.096 256.904 315.408 237.524 333.695 218.167" stroke="#323232" stroke-width="16" stroke-miterlimit="10"/>
<path d="M249.62 225.387C240.714 232.346 231.997 239.519 223.424 246.881C223.067 247.19 223.59 247.689 223.922 247.38C232.496 240.017 241.236 232.845 250.119 225.886C250.475 225.625 249.976 225.102 249.62 225.387Z" fill="#323232"/>
<path d="M223.756 247.261C226.559 247.855 229.409 247.855 232.282 247.879C235.512 247.926 238.552 248.259 241.64 249.161C247.435 250.848 253.111 251.964 259.167 251.821C259.619 251.821 259.619 251.109 259.167 251.109C256.056 251.18 252.945 250.99 249.857 250.491C246.96 250.016 244.205 249.161 241.379 248.378C238.671 247.617 235.964 247.261 233.137 247.214C230.05 247.142 226.962 247.237 223.922 246.596C223.495 246.477 223.305 247.166 223.756 247.261Z" fill="#323232"/>
<path d="M250.143 225.91C259.548 226.67 268.881 228.166 278.049 230.399C278.5 230.518 278.69 229.829 278.239 229.71C269.024 227.454 259.619 225.957 250.143 225.197C249.691 225.15 249.691 225.862 250.143 225.91Z" fill="#323232"/>
<path d="M259.714 251.394C266.34 244.839 272.705 237.999 278.738 230.874C279.023 230.518 278.524 230.019 278.239 230.375C272.206 237.476 265.841 244.316 259.215 250.895C258.883 251.227 259.381 251.726 259.714 251.394Z" fill="#323232"/>
<path d="M232.045 244.435C240.215 243.437 248.48 244.459 256.151 247.451C256.579 247.618 256.769 246.929 256.341 246.763C248.623 243.77 240.263 242.725 232.045 243.722C231.594 243.77 231.594 244.482 232.045 244.435Z" fill="#323232"/>
<path d="M244.419 241.823C249.454 242.203 254.417 242.986 259.334 244.15C259.785 244.269 259.975 243.58 259.524 243.461C254.56 242.274 249.525 241.49 244.419 241.11C243.944 241.086 243.968 241.799 244.419 241.823Z" fill="#323232"/>
<path d="M240.643 236.574C248.219 236.74 255.724 237.832 263.039 239.851C263.49 239.97 263.68 239.281 263.229 239.162C255.866 237.144 248.29 236.027 240.643 235.861C240.191 235.861 240.191 236.574 240.643 236.574Z" fill="#323232"/>
<path d="M250.048 234.389C254.133 234.959 258.17 235.671 262.207 236.526C262.659 236.621 262.849 235.933 262.397 235.838C258.36 234.982 254.323 234.27 250.238 233.7C249.786 233.629 249.596 234.317 250.048 234.389Z" fill="#323232"/>
<path d="M244.846 250.325C243.397 252.557 241.949 254.79 240.476 256.999C240.334 257.213 240.524 257.569 240.785 257.545C252.494 256.215 264.369 256.975 275.816 259.778C276.267 259.896 276.457 259.208 276.006 259.089C264.487 256.263 252.565 255.503 240.785 256.809C240.88 256.999 240.999 257.165 241.094 257.355C242.542 255.123 243.991 252.89 245.464 250.681C245.725 250.301 245.107 249.945 244.846 250.325Z" fill="#323232"/>
<path d="M273.56 236.835C278.144 236.74 282.704 236.645 287.287 236.55C287.169 236.408 287.05 236.241 286.955 236.099C283.796 243.628 280.614 251.133 277.455 258.661C277.289 259.089 277.977 259.279 278.144 258.851C281.302 251.323 284.485 243.818 287.644 236.289C287.739 236.075 287.501 235.838 287.311 235.838C282.727 235.933 278.167 236.028 273.584 236.123C273.109 236.146 273.109 236.859 273.56 236.835Z" fill="#323232"/>
<path d="M256.199 254.529C257.41 254.291 258.621 254.244 259.856 254.339C260.308 254.363 260.308 253.65 259.856 253.626C258.55 253.531 257.291 253.603 256.009 253.84C255.558 253.911 255.748 254.6 256.199 254.529Z" fill="#323232"/>
<path d="M262.944 254.6C266.673 254.743 270.401 255.099 274.106 255.669C274.557 255.74 274.747 255.051 274.296 254.98C270.544 254.386 266.744 254.03 262.944 253.888C262.493 253.864 262.493 254.576 262.944 254.6Z" fill="#323232"/>
<path d="M263.158 250.135C264.036 250.135 264.915 250.135 265.817 250.135C266.269 250.135 266.269 249.423 265.817 249.423C264.939 249.423 264.06 249.423 263.158 249.423C262.706 249.423 262.706 250.135 263.158 250.135Z" fill="#323232"/>
<path d="M268.691 250.064C271.613 250.135 274.51 250.42 277.408 250.895C277.859 250.966 278.049 250.277 277.597 250.206C274.653 249.731 271.684 249.446 268.691 249.351C268.24 249.351 268.24 250.064 268.691 250.064Z" fill="#323232"/>
<path d="M268.24 246.003C271.565 246.05 274.866 246.24 278.168 246.62C278.619 246.668 278.619 245.955 278.168 245.908C274.866 245.528 271.565 245.314 268.24 245.29C267.789 245.266 267.789 245.979 268.24 246.003Z" fill="#323232"/>
<path d="M245.939 253.887C247.53 253.935 249.098 253.745 250.665 253.365C251.116 253.246 250.926 252.557 250.475 252.676C248.979 253.056 247.483 253.222 245.939 253.175C245.488 253.175 245.488 253.887 245.939 253.887Z" fill="#323232"/>
<path d="M257.22 216.671C256.603 217.431 255.89 218.975 256.626 219.901C257.078 220.471 257.933 220.352 258.574 220.376C259.738 220.424 260.901 220.495 262.065 220.542C266.791 220.756 271.494 220.994 276.22 221.207C276.671 221.231 276.671 220.519 276.22 220.495C272.729 220.329 269.261 220.162 265.77 219.996C264.06 219.925 262.374 219.83 260.664 219.759C259.833 219.711 258.954 219.759 258.123 219.64C257.505 219.545 257.054 219.521 257.078 218.761C257.101 218.167 257.363 217.621 257.719 217.17C258.004 216.814 257.505 216.291 257.22 216.671Z" fill="#323232"/>
<path d="M257.861 217.574C261.851 217.716 265.841 217.835 269.831 217.977C271.779 218.049 273.75 218.096 275.698 218.167C277.455 218.239 279.307 218.357 280.566 219.711C280.875 220.044 281.374 219.545 281.065 219.212C280.115 218.167 278.833 217.764 277.455 217.574C275.413 217.312 273.299 217.36 271.233 217.289C266.768 217.146 262.303 216.98 257.861 216.837C257.41 216.861 257.41 217.574 257.861 217.574Z" fill="#323232"/>
<path d="M275.983 221.231C277.811 221.255 279.545 220.685 281.017 219.593C281.374 219.331 281.017 218.714 280.661 218.975C279.284 219.996 277.716 220.543 275.983 220.519C275.508 220.519 275.508 221.231 275.983 221.231Z" fill="#323232"/>
<path d="M276.553 217.574C275.555 218.239 275.104 219.474 275.436 220.614C275.555 221.041 276.244 220.875 276.125 220.424C275.887 219.593 276.173 218.666 276.909 218.168C277.289 217.93 276.933 217.313 276.553 217.574Z" fill="#323232"/>
<path d="M103.249 132.192C102.655 130.957 100.969 130.863 100.066 131.789C99.0925 132.786 98.6412 134.71 98.7362 136.064C98.95 138.795 101.61 140.078 102.322 142.524C102.655 143.64 104.365 143.996 104.935 142.856C105.885 140.98 107.215 139.365 108.402 137.655C109.447 136.135 111.039 133.784 110.469 131.836C110.231 131.005 109.495 130.293 108.592 130.198C107.5 130.079 106.74 130.744 106.099 131.551C105.457 132.383 104.887 133.238 104.412 134.164C103.985 134.971 103.652 135.921 102.821 136.373C103.51 136.658 104.222 136.943 104.911 137.228C104.602 136.206 104.294 135.185 104.009 134.188C103.225 134.639 102.417 135.114 101.634 135.565C102.702 136.776 104.531 136.943 105.814 135.921C106.407 135.446 106.74 134.805 107.144 134.188C107.334 133.903 107.5 133.641 107.785 133.451C107.975 133.309 108.212 133.214 108.45 133.142C108.925 133.119 108.901 133.071 108.402 133C108.165 132.596 107.927 132.169 107.69 131.765C107.69 131.812 107.69 131.884 107.69 131.931C108.046 131.48 108.379 131.005 108.735 130.554C108.687 130.578 108.64 130.578 108.592 130.601C106.859 131.148 107.595 133.903 109.352 133.356C109.4 133.333 109.447 133.333 109.495 133.309C110.136 133.119 110.492 132.573 110.54 131.931C110.54 131.884 110.54 131.812 110.54 131.765C110.564 131.266 110.231 130.791 109.827 130.53C108.64 129.77 106.882 130.506 105.909 131.29C105.362 131.741 104.982 132.264 104.602 132.858C104.365 133.238 104.104 134.045 103.652 133.523C102.702 132.454 100.874 133.594 101.277 134.9C101.586 135.921 101.895 136.943 102.18 137.94C102.441 138.843 103.462 139.246 104.27 138.795C105.481 138.154 106.146 137.038 106.74 135.85C107.096 135.161 107.452 134.496 107.904 133.879C107.975 133.76 108.616 133.095 108.592 132.976C107.975 132.454 107.666 132.478 107.619 133.048C107.571 133.238 107.5 133.404 107.429 133.57C106.241 136.444 103.866 138.629 102.465 141.384C103.344 141.503 104.199 141.621 105.077 141.716C104.626 140.173 103.605 139.056 102.631 137.821C102.227 137.299 101.776 136.729 101.634 136.088C101.539 135.636 101.586 135.233 101.705 134.805C101.776 134.52 101.871 134.259 101.99 133.998C102.394 133.428 101.99 133.285 100.802 133.594C101.586 135.28 104.032 133.831 103.249 132.192Z" fill="url(#paint2_linear_33_268)"/>
<path d="M104.792 139.982C106.882 137.465 108.711 134.781 110.231 131.907C111.086 130.292 108.616 128.844 107.761 130.459C106.36 133.142 104.721 135.66 102.774 137.964C101.61 139.365 103.605 141.384 104.792 139.982Z" fill="url(#paint3_linear_33_268)"/>
<path d="M110.421 99.6787C110.041 102.172 110.136 104.619 110.801 107.065C111.158 108.395 113.224 107.825 112.868 106.495C112.321 104.452 112.155 102.339 112.488 100.249C112.678 98.895 110.611 98.325 110.421 99.6787Z" fill="#FF6838"/>
<path d="M111.229 100.771C113.841 101.887 115.931 99.7025 116.026 97.1375C116.026 96.9 115.884 96.2587 115.979 96.045C115.931 96.045 115.884 96.045 115.86 96.045C116.074 96.1162 116.24 96.235 116.335 96.4487C116.715 96.9237 116.905 97.5412 117.309 98.0162C118.14 98.99 119.28 99.1325 120.491 99.2037C121.085 99.2275 121.797 99.1562 122.154 99.7262C122.51 100.272 122.32 101.199 122.272 101.816C122.225 102.671 122.154 103.55 122.082 104.405C122.059 104.619 121.845 105.426 122.154 105.117C121.964 105.331 121.18 105.379 120.919 105.45C119.351 105.806 117.736 105.949 116.145 105.854C115.314 105.806 114.055 105.901 113.58 105.165C113.152 104.476 113.129 103.431 113.247 102.647C112.606 102.742 111.941 102.814 111.3 102.909C111.87 104.167 112.416 105.426 112.986 106.709C113.366 107.54 114.744 107.303 114.934 106.448C115.504 103.882 114.72 101.199 115.527 98.6812C114.934 98.8475 114.34 98.99 113.746 99.1562C114.435 99.9875 114.269 101.769 114.435 102.79C114.625 103.977 114.957 105.07 115.504 106.115C116.002 107.018 117.57 106.638 117.499 105.569C117.309 102.719 117.119 99.845 116.952 96.995C116.264 97.09 115.551 97.185 114.862 97.28C115.86 99.9637 116.002 102.766 115.219 105.521C115.741 105.307 116.264 105.094 116.786 104.88C115.456 103.859 114.459 102.529 113.77 101.009C113.319 100.035 111.727 100.534 111.775 101.555C111.822 102.505 111.846 103.455 111.894 104.405C112.606 104.405 113.319 104.405 114.031 104.405C113.984 103.217 114.031 102.054 114.269 100.89C114.364 100.486 114.459 100.059 114.577 99.655C114.649 99.3937 114.744 99.1087 114.839 98.8475C115.147 98.4675 115.1 98.325 114.696 98.42C115.836 100.035 115.979 102.457 115.789 104.334C116.454 104.144 117.119 103.977 117.784 103.787C117.237 102.671 116.881 101.484 116.739 100.249C116.667 99.6075 116.644 98.9662 116.691 98.325C116.691 98.23 116.81 97.565 116.762 97.5175C116.596 97.5412 116.43 97.5412 116.264 97.565C116.359 97.755 116.454 97.9212 116.549 98.1112C117.641 100.344 117.974 102.861 117.712 105.331C118.377 105.141 119.042 104.975 119.707 104.785C119.28 103.859 118.947 102.885 118.757 101.887C118.686 101.46 118.639 101.032 118.686 100.605C118.71 100.367 118.757 100.13 118.829 99.8925C119.09 99.6075 119.114 99.4887 118.9 99.56C118.615 99.5125 118.354 99.4887 118.069 99.4412C118.449 99.6312 118.686 101.507 118.757 101.935C118.9 102.956 118.876 104.025 118.734 105.046C119.422 105.046 120.111 105.046 120.8 105.046C120.539 104.286 120.349 103.502 120.23 102.719C120.111 101.959 120.182 101.175 119.945 100.439C120.467 102.077 120.372 103.811 119.897 105.426C120.539 105.331 121.204 105.26 121.845 105.165C121.56 104.547 121.322 103.882 121.204 103.194C121.132 102.861 121.109 102.529 121.085 102.196C121.085 102.054 121.061 101.911 121.085 101.769C121.156 101.436 120.99 101.412 120.61 101.674C120.396 101.507 120.182 101.341 119.969 101.175C121.322 103.502 118.615 106.091 116.311 105.759C116.572 106.091 116.834 106.448 117.095 106.78C117.071 106.353 116.929 105.735 117.071 105.331C116.905 105.545 116.739 105.759 116.572 105.973C116.169 106.234 118.33 105.925 117.427 105.83C116.192 105.711 116.002 107.611 117.142 107.92C118.282 108.229 119.327 108.846 120.539 108.704C121.584 108.585 122.367 107.968 122.795 107.041C123.246 106.068 123.341 104.927 123.199 103.859C123.127 103.265 122.985 102.719 122.747 102.196C122.652 101.959 122.534 101.721 122.415 101.484C122.344 101.341 122.249 101.199 122.154 101.056C122.059 100.842 122.011 100.89 122.059 101.199C122.724 101.389 123.389 101.555 124.054 101.745C124.077 101.294 124.125 100.866 124.149 100.415C123.46 100.51 122.747 100.605 122.059 100.7C122.462 101.887 122.391 102.98 121.916 104.144C121.394 105.426 123.46 105.972 123.982 104.714C124.576 103.217 124.624 101.65 124.125 100.13C123.745 98.9662 122.106 99.2037 122.035 100.415C122.011 100.866 121.964 101.294 121.94 101.745C121.869 102.79 123.484 103.241 123.935 102.291C124.457 101.151 124.315 99.6787 123.104 99.0375C122.059 98.4912 120.657 98.9662 120.159 100.035C119.47 101.507 121.014 102.814 121.156 104.239C121.227 104.904 121.227 106.234 120.491 106.566C119.779 106.875 118.425 106.044 117.76 105.854C117.665 106.543 117.57 107.255 117.475 107.944C119.636 108.134 119.684 105.284 118.187 104.357C117.451 103.906 116.454 103.55 115.67 104.025C114.696 104.619 114.981 105.806 115.005 106.756C115.029 107.184 115.314 107.73 115.789 107.778C119.589 108.324 123.056 105.284 122.32 101.317C122.177 100.534 121.869 99.655 120.99 99.4887C120.254 99.3462 119.517 99.7737 119.209 100.439C118.425 102.125 119.351 104.619 120.064 106.163C120.467 107.041 121.774 106.733 122.011 105.901C122.486 104.31 122.629 102.671 122.344 101.032C122.13 99.7975 121.75 98.1825 120.206 98.135C116.762 98.0637 118.187 103.716 118.781 105.498C119.09 106.4 120.657 106.614 120.847 105.498C121.132 103.669 121.109 101.84 120.634 100.035C120.349 98.9662 119.779 96.8762 118.235 97.4225C117 97.8737 116.62 99.655 116.62 100.819C116.62 102.529 117.237 104.215 117.95 105.711C118.449 106.78 119.85 106.115 119.945 105.165C120.159 103.17 119.992 101.151 119.422 99.2275C119.019 97.8737 118.282 95.1425 116.477 95.2137C114.72 95.2612 114.625 97.5175 114.625 98.8C114.625 100.866 115.147 102.861 116.05 104.737C116.549 105.783 117.95 105.141 118.045 104.191C118.235 102.505 118.069 100.795 117.546 99.18C117.166 97.9925 116.549 96.2825 115.124 96.1162C113.556 95.95 113.01 97.755 112.654 98.9187C112.131 100.629 111.965 102.434 112.036 104.239C112.107 105.616 114.221 105.616 114.174 104.239C114.126 103.289 114.102 102.339 114.055 101.389C113.39 101.579 112.725 101.745 112.06 101.935C112.915 103.811 114.221 105.331 115.836 106.566C116.406 106.994 117.237 106.519 117.404 105.925C118.306 102.837 118.187 99.56 117.047 96.5437C116.644 95.4987 114.862 95.5462 114.957 96.8287C115.147 99.6787 115.337 102.552 115.504 105.402C116.169 105.212 116.834 105.046 117.499 104.856C116.264 102.552 117.095 99.4887 115.409 97.4462C114.862 96.7812 113.841 97.2087 113.627 97.9212C112.796 100.462 113.604 103.122 113.034 105.688C113.675 105.592 114.34 105.521 114.981 105.426C114.411 104.167 113.865 102.909 113.295 101.626C112.939 100.819 111.49 101.009 111.347 101.887C111.086 103.55 111.205 105.878 112.654 107.018C113.319 107.54 114.197 107.588 115.029 107.683C116.145 107.801 117.285 107.849 118.425 107.778C119.517 107.706 120.586 107.54 121.655 107.303C122.367 107.136 123.317 107.018 123.816 106.448C124.457 105.759 124.339 104.642 124.41 103.764C124.481 102.719 124.6 101.697 124.624 100.652C124.647 98.9425 123.959 97.4462 122.201 97.0187C121.489 96.8525 120.752 96.9475 120.016 96.8287C118.876 96.6625 118.757 95.6887 118.14 94.8812C117.356 93.8362 115.67 93.1712 114.601 94.1925C113.912 94.8575 114.055 95.7125 114.079 96.5675C114.102 97.3275 113.722 99.2512 112.511 98.7287C111.062 98.3962 109.97 100.249 111.229 100.771Z" fill="#FF6838"/>
<path d="M48.2912 112.599C49.9537 114.119 51.5212 115.757 52.875 117.562C53.7775 118.75 54.7037 121.125 56.3188 121.457C57.2688 121.647 58.0288 121.149 58.7413 120.579C59.715 119.795 60.665 118.987 61.6388 118.18C62.6125 117.372 63.5625 116.589 64.5363 115.781C65.225 115.211 66.0088 114.689 66.0563 113.715C66.1038 112.789 65.51 112.1 64.9638 111.411C64.2038 110.437 63.42 109.464 62.66 108.49C61.9 107.516 61.1163 106.542 60.3563 105.569C59.7863 104.856 59.2638 103.906 58.3138 103.692C57.4588 103.502 56.675 104.001 55.9625 104.381C55.0125 104.88 54.0862 105.45 53.2075 106.044C51.4737 107.231 49.8587 108.585 48.3862 110.105C47.935 110.58 47.9825 111.459 48.6 111.791C50.1437 112.575 51.6162 113.501 52.9462 114.641C53.54 115.14 54.11 115.686 54.6562 116.256C54.9175 116.541 55.1787 116.826 55.44 117.135C55.6062 117.325 55.7725 117.539 55.9387 117.729C56.1525 118.299 56.4613 118.275 56.8413 117.61C56.9363 118.251 57.0075 118.916 57.1025 119.557C59.5725 118.061 61.8288 116.209 63.7763 114.071C64.5838 113.169 63.5625 111.791 62.47 112.385C60.8075 113.287 59.0975 114.024 57.3163 114.594C57.72 115.116 58.1238 115.639 58.5275 116.161C59.525 114.57 60.76 113.192 62.2088 111.981C61.6388 111.554 61.0925 111.126 60.5225 110.675C59.2163 112.622 57.5775 114.332 55.7012 115.734C56.2238 116.137 56.7463 116.541 57.2688 116.945C57.8863 114.712 59.145 112.741 61.0213 111.34C60.5225 110.841 60.0475 110.366 59.5488 109.867C58.48 111.981 56.9838 113.786 55.06 115.164C55.4163 115.164 55.7725 115.164 56.1288 115.164C56.2 115.235 56.2475 115.33 56.3188 115.401C56.3663 115.211 56.4138 115.021 56.4613 114.855C56.5325 114.617 56.6038 114.38 56.6988 114.119C56.9125 113.477 57.1975 112.884 57.5063 112.29C58.1 111.174 58.8363 110.2 59.715 109.297C59.145 108.87 58.5988 108.442 58.0288 107.991C56.77 110.58 55.0362 112.836 52.8512 114.736C53.4687 114.997 54.0625 115.235 54.68 115.496C54.9413 112.694 56.1525 110.129 58.1238 108.11C57.5538 107.682 57.0075 107.255 56.4375 106.804C55.4638 108.704 54.0388 110.2 52.1862 111.269C52.7325 111.577 53.255 111.886 53.8012 112.195C53.7775 111.34 53.8962 110.509 54.3 109.749C54.4662 109.416 54.68 109.107 54.9175 108.846C55.2975 108.395 56.01 108.276 55.345 107.849C55.0362 107.469 54.87 107.492 54.8462 107.967C54.7275 108.205 54.6325 108.442 54.5137 108.68C54.3237 109.036 54.1337 109.369 53.9437 109.701C53.73 110.034 53.5163 110.366 53.2788 110.675C53.0887 110.912 52.9225 111.15 52.7087 111.387C52.3762 111.577 52.3525 111.72 52.6375 111.791C52.8037 112.005 52.97 112.219 53.1362 112.432C52.8987 111.672 53.6825 110.247 54.0387 109.606C54.2525 109.25 55.4875 107.207 56.0337 107.326C56.295 107.374 56.6512 108.704 56.7462 108.941C56.9362 109.464 57.1025 110.01 57.2212 110.556C57.34 111.102 57.4825 111.672 57.4825 112.219C57.4825 112.86 57.4825 112.884 56.96 112.432C55.4638 111.15 55.2975 107.896 57.5063 107.16C58.6225 106.78 58.955 108.205 59.2163 109.012C59.5963 110.176 59.9525 111.364 60.3325 112.551C60.9263 112.195 61.52 111.862 62.1138 111.506C60.7838 110.2 60.0713 108.537 60.0238 106.661C59.5725 106.994 59.1213 107.35 58.67 107.682C61.1638 108.632 61.5675 111.767 61.9 114.047C62.09 115.401 64.1563 114.831 63.9663 113.477C63.4913 110.247 62.6125 106.875 59.24 105.616C58.5988 105.379 57.8625 105.996 57.8863 106.637C57.9338 109.06 58.8838 111.269 60.5938 112.979C61.33 113.715 62.7075 112.979 62.375 111.934C61.9475 110.58 61.5675 109.226 61.0925 107.896C60.76 106.946 60.3325 105.949 59.4538 105.379C57.5538 104.12 55.3213 105.545 54.3475 107.279C53.2313 109.297 53.5162 111.815 55.0363 113.525C56.295 114.926 58.7413 115.686 59.43 113.335C60.0475 111.245 58.9788 108.157 57.9338 106.352C56.5087 103.93 54.1575 105.759 52.9462 107.326C52.305 108.157 51.8062 109.06 51.45 110.034C51.1175 110.936 50.5712 112.409 51.2362 113.287C52.8037 115.33 55.06 111.862 55.7488 110.722C56.3425 109.772 57.1975 108.466 57.055 107.279C56.9125 106.162 55.8675 105.64 54.87 106.067C52.685 107.017 51.5687 109.939 51.6637 112.147C51.6875 112.955 52.5425 113.477 53.2788 113.074C55.4163 111.839 57.15 110.034 58.29 107.849C58.8363 106.804 57.4825 105.664 56.6038 106.542C54.2288 108.965 52.8512 112.052 52.5425 115.425C52.4475 116.422 53.73 116.731 54.3712 116.185C56.675 114.19 58.5513 111.744 59.8813 109.012C60.38 107.967 59.0975 106.804 58.195 107.706C56.8175 109.131 55.725 110.77 54.965 112.599C54.4662 113.81 53.4212 116.114 55.0363 116.945C55.3688 117.111 55.7963 117.159 56.105 116.945C58.3375 115.354 60.1425 113.335 61.3775 110.889C61.805 110.034 60.855 108.727 59.905 109.416C57.5775 111.174 55.9388 113.501 55.1788 116.304C54.9413 117.135 55.9625 118.085 56.7462 117.515C58.955 115.9 60.8075 113.976 62.3513 111.696C63.0638 110.627 61.5438 109.677 60.665 110.39C59.0738 111.696 57.7438 113.24 56.6513 114.997C56.1525 115.781 56.9838 116.85 57.8625 116.565C59.8338 115.947 61.7338 115.14 63.5388 114.142C63.1113 113.572 62.6838 113.026 62.2325 112.456C60.4038 114.475 58.3138 116.209 55.9863 117.61C55.1313 118.132 55.4163 119.225 56.2475 119.557C57.245 119.961 58.3138 119.154 58.3613 118.132C58.4325 116.897 57.15 115.734 56.39 114.926C54.4662 112.836 52.1625 111.126 49.645 109.867C49.7162 110.437 49.7875 110.984 49.8587 111.554C50.975 110.414 52.1625 109.369 53.4212 108.419C54.5612 107.564 55.9862 106.424 57.34 105.972C57.7438 105.83 57.72 105.759 58.0525 106.091C58.385 106.424 58.6463 106.827 58.9075 107.184C59.43 107.849 59.9763 108.537 60.4988 109.202C61.0688 109.939 61.6625 110.675 62.2325 111.411C62.5413 111.815 63.8 113.026 63.705 113.477C63.61 114 62.3038 114.76 61.8763 115.116C61.2113 115.662 60.5463 116.209 59.8813 116.755C59.2163 117.301 58.5513 117.847 57.8863 118.394C57.6013 118.631 56.9838 119.32 56.485 119.059C56.295 118.964 55.9625 118.251 55.8438 118.085C54.11 115.472 52.0437 113.121 49.74 111.007C48.79 110.176 47.27 111.672 48.2912 112.599Z" fill="#FF6838"/>
<path d="M49.4312 110.699C50.2862 112.361 55.6537 121.624 57.9337 118.465C58.7412 117.349 56.8887 116.28 56.0812 117.396C56.0337 117.444 56.01 117.515 55.9625 117.563C56.2712 117.396 56.58 117.206 56.8887 117.04C56.485 117.088 55.5112 115.734 55.25 115.425C54.7275 114.831 54.205 114.238 53.73 113.596C52.8037 112.338 51.9962 111.008 51.2837 109.63C50.6662 108.395 48.8137 109.488 49.4312 110.699Z" fill="#FF6838"/>
<path d="M91.92 81.3675C89.3788 79.515 88.405 75.715 89.9963 72.9363C90.78 71.5588 92.205 70.4425 93.8675 70.6325C95.5775 70.8225 96.4087 72.0575 96.5275 73.6725C96.5987 74.575 96.5038 75.5013 96.48 76.4038C96.4325 77.2588 96.5275 78.2563 96.29 79.0875C96.0525 79.9188 95.1975 80.37 94.865 81.2013C94.58 81.9138 94.8888 82.5313 94.0575 82.7688C93.82 82.84 93.4875 82.8163 93.2738 82.8875C92.8938 82.84 92.8938 82.9113 93.2738 83.0775C93.1788 82.7688 93.1075 82.4838 93.0125 82.175C92.7038 81.13 92.395 80.0613 92.0863 79.0163C91.5638 77.2588 90.4713 74.67 91.8488 73.0313C91.2788 73.1025 90.7088 73.1738 90.115 73.245C90.9463 73.8625 90.6375 76.38 90.685 77.235C90.7563 79.0163 90.8275 80.7975 90.8988 82.5788C90.97 84.455 93.5588 84.3838 93.7488 82.5788C93.9388 80.7025 93.6775 78.85 93.6063 76.95C93.5588 76.1425 93.5588 75.3113 93.6775 74.5038C93.725 74.1 93.82 73.72 93.9388 73.34C94.01 73.0788 94.1288 72.8175 94.2475 72.58C94.5088 72.1763 94.5088 72.1288 94.2713 72.4375C93.915 72.485 93.535 72.5325 93.1788 72.58C93.1075 72.5563 93.44 73.435 93.4875 73.625C93.5825 73.9813 93.63 74.3613 93.6775 74.7175C93.7725 75.715 93.7725 76.7363 93.725 77.7338C93.7013 78.185 93.6538 78.6363 93.5825 79.1113C93.535 79.3963 93.4875 79.6813 93.44 79.9663C93.2025 80.5363 93.6063 80.6788 94.6513 80.3225C94.7463 80.1325 94.485 79.3725 94.4613 79.1588C94.4138 78.66 94.39 78.1375 94.4138 77.6388C94.4375 76.665 94.5563 75.7388 94.7938 74.7888C94.865 74.5038 94.9363 74.2425 95.0313 73.9575C95.3875 73.34 95.0075 73.1263 93.8913 73.34C93.7963 73.5063 94.1763 74.4088 94.2238 74.575C94.4375 75.5725 94.485 76.5938 94.39 77.615C94.3425 78.09 94.295 79.6338 93.7488 79.7525C91.9675 80.18 92.7275 82.935 94.5088 82.5075C96.385 82.0563 96.9075 80.1563 97.145 78.47C97.4062 76.475 97.3112 74.2188 96.5512 72.3425C95.815 70.5375 93.6538 70.5138 92.7038 72.1763C91.7538 73.8388 91.54 76.19 91.5638 78.0663C91.5875 79.5863 91.6113 82.1988 93.44 82.745C95.4588 83.3388 96.1713 81.1538 96.385 79.6338C96.67 77.6388 96.7412 75.5963 96.4087 73.6013C96.1712 72.1288 95.2213 69.3025 93.2025 69.8488C91.255 70.3475 90.875 73.7438 90.78 75.3588C90.6613 77.7813 91.1838 80.18 90.9463 82.6025C91.8963 82.6025 92.8463 82.6025 93.7963 82.6025C93.7013 80.2038 93.6063 77.805 93.4875 75.4063C93.4163 73.5775 93.1313 71.9625 91.5875 70.8225C91.1363 70.4663 90.2338 70.6088 89.8538 71.0363C88.2863 72.8888 88.1675 75.1688 88.7138 77.4488C88.9988 78.6838 89.4025 79.9188 89.7588 81.13C90.0913 82.27 90.2813 83.6475 90.8988 84.645C91.8725 86.26 94.58 85.88 95.9813 85.0488C96.7175 84.6213 97.2162 83.9088 97.4062 83.0775C97.525 82.555 97.4775 82.3413 97.81 81.9138C98.19 81.4388 98.57 81.0588 98.8075 80.4888C99.2112 79.5863 99.235 78.5888 99.2825 77.6388C99.33 76.4513 99.4487 75.24 99.425 74.0288C99.3775 71.915 98.6887 69.92 96.86 68.7088C93.345 66.3813 88.9275 68.5425 87.265 72.0575C85.3176 76.2138 86.885 81.13 90.5188 83.79C91.9675 84.9063 93.3925 82.4363 91.92 81.3675Z" fill="url(#paint4_linear_33_268)"/>
<path d="M91.7775 87.6612C92.2525 88.4212 93.1075 88.7062 93.9625 88.445C94.3425 88.3262 94.675 88.1125 94.96 87.8512C95.0312 87.78 95.1262 87.7087 95.1975 87.6137C95.2687 87.5425 95.245 87.5425 95.15 87.6375C95.6012 87.4 95.245 87.3287 94.105 87.3762C94.675 87.8512 95.5775 87.97 96.1237 87.3762C96.6225 86.8537 96.7175 85.8799 96.1237 85.3574C95.435 84.7637 94.5562 84.6687 93.7488 85.1437C93.4875 85.2862 93.2263 85.4999 93.0363 85.7374C92.87 85.9512 93.25 85.5949 92.9888 85.7849C93.0363 85.7612 93.0838 85.7374 93.1313 85.7374C92.6325 85.8562 92.9888 86.0224 94.2 86.2362C93.7963 85.5949 92.9175 85.2862 92.2525 85.7137C91.6588 86.1174 91.35 86.9962 91.7775 87.6612Z" fill="url(#paint5_linear_33_268)"/>
<path d="M92.4425 89.5375C92.4425 89.6087 92.4425 89.68 92.4425 89.7512C92.4425 90.1075 92.6088 90.5112 92.87 90.7488C93.1075 90.9863 93.5113 91.1762 93.8675 91.1762C94.2475 91.1525 94.6275 91.0338 94.865 90.7488C95.1263 90.4637 95.2925 90.1312 95.2925 89.7512C95.2925 89.68 95.2925 89.6087 95.2925 89.5375C95.2925 89.1812 95.1263 88.7775 94.865 88.54C94.6275 88.3025 94.2238 88.1125 93.8675 88.1125C93.4875 88.1362 93.1075 88.255 92.87 88.54C92.6088 88.8012 92.4425 89.1337 92.4425 89.5375Z" fill="url(#paint6_linear_33_268)"/>
<path d="M78.335 63.27C84.5812 55.8362 90.5662 48.1887 96.3137 40.3275C95.7675 40.5412 95.245 40.755 94.6987 40.9925C95.245 41.1587 95.6487 41.4437 96.0525 41.8475C95.9812 41.2775 95.91 40.7075 95.8387 40.1137C90.3525 47.9512 84.89 55.765 79.4038 63.6025C80.045 63.4362 80.71 63.27 81.3512 63.08C80.8762 62.795 80.4012 62.51 79.9262 62.2012C80.0925 62.8425 80.2588 63.5075 80.4488 64.1487C82.9425 60.895 85.2225 57.5225 87.2887 53.9837C88.215 52.3925 85.745 50.9675 84.8187 52.535C82.7525 56.05 80.4725 59.4462 77.9788 62.7C77.5038 63.3175 77.9075 64.2912 78.5013 64.6475C78.9763 64.9325 79.4513 65.2175 79.9262 65.5262C80.615 65.9537 81.4462 65.645 81.8737 65.0037C87.36 57.1662 92.8225 49.3525 98.3087 41.515C98.665 40.9925 98.4987 40.2087 98.095 39.7812C97.3587 39.0212 96.48 38.4987 95.4825 38.19C94.8412 37.9762 94.2475 38.3325 93.8675 38.855C88.2862 46.5025 82.4437 53.96 76.34 61.2037C75.1525 62.6525 77.1713 64.695 78.335 63.27Z" fill="url(#paint7_linear_33_268)"/>
<path d="M62.3512 144.02C62.3512 143.949 62.3512 143.877 62.3512 143.806C62.3512 141.977 59.5012 141.977 59.5012 143.806C59.5012 143.877 59.5012 143.949 59.5012 144.02C59.5012 145.872 62.3512 145.872 62.3512 144.02C62.3512 143.949 62.3512 143.877 62.3512 143.806C62.3512 141.977 59.5012 141.977 59.5012 143.806C59.5012 143.877 59.5012 143.949 59.5012 144.02C59.5012 145.872 62.3512 145.872 62.3512 144.02Z" fill="url(#paint8_linear_33_268)"/>
<path d="M39.5987 124.141C41.4275 124.141 41.4275 121.291 39.5987 121.291C37.77 121.291 37.77 124.141 39.5987 124.141Z" fill="url(#paint9_linear_33_268)"/>
<path d="M46.035 125.4C47.4125 125.4 47.4125 123.262 46.035 123.262C44.6575 123.262 44.6575 125.4 46.035 125.4Z" fill="#FF6838"/>
<path d="M133.316 71.1075C134.694 71.1075 134.694 68.97 133.316 68.97C131.939 68.97 131.939 71.1075 133.316 71.1075Z" fill="#FF6838"/>
<path d="M146.711 103.408C146.711 103.55 146.711 103.669 146.711 103.811C146.711 104.096 146.83 104.381 147.02 104.571C147.21 104.761 147.519 104.904 147.78 104.88C148.065 104.856 148.35 104.785 148.54 104.571C148.73 104.357 148.849 104.096 148.849 103.811C148.849 103.669 148.849 103.55 148.849 103.408C148.849 103.123 148.73 102.838 148.54 102.648C148.35 102.458 148.041 102.315 147.78 102.339C147.495 102.363 147.21 102.434 147.02 102.648C146.83 102.861 146.711 103.123 146.711 103.408Z" fill="#FF6838"/>
<path d="M138.09 86.45C142.128 87.0913 147.78 88.9675 146.284 94.24C145.595 96.6625 143.695 98.3963 141.819 99.94C139.966 101.436 138.138 102.909 136.451 104.595C134.836 106.21 133.364 107.968 132.01 109.82C130.941 111.293 129.469 113.121 129.635 115.093C129.778 116.85 131.321 117.278 132.723 117.824C134.741 118.608 136.879 119.985 137.663 122.099C138.708 124.949 136.523 127.466 134.456 129.153C132.604 130.673 130.585 131.979 129.326 134.069C129.089 134.473 129.706 134.829 129.944 134.425C132.2 130.625 137.948 129.105 138.589 124.308C138.85 122.431 137.995 120.674 136.641 119.415C135.976 118.774 135.193 118.251 134.385 117.8C133.411 117.278 132.271 117.064 131.321 116.518C128.661 114.974 131.986 111.031 133.126 109.535C134.765 107.374 136.594 105.379 138.613 103.574C141.843 100.629 146.901 98.0163 147.257 93.1C147.614 88.1125 142.27 86.4263 138.328 85.8088C137.829 85.69 137.639 86.3788 138.09 86.45Z" fill="#323232"/>
<path d="M67.9325 85.69C63.705 90.8912 58.9312 95.6175 53.6587 99.75C48.4812 103.811 42.8525 107.041 37.1287 110.248C31.8562 113.216 26.5362 116.256 22.0237 120.365C20.005 122.194 17.7725 124.331 16.6325 126.873C15.7537 128.844 15.6825 131.409 17.9387 132.43C19.1737 132.976 20.6225 132.786 21.905 132.573C23.995 132.216 26.0612 131.765 28.1275 131.361C30.2412 130.958 32.355 130.53 34.4687 130.126C36.4875 129.746 40.2637 129.39 40.3587 132.406C40.3825 132.858 41.095 132.858 41.0712 132.406C40.9762 129.604 37.9837 128.891 35.68 129.176C32.165 129.628 28.6975 130.506 25.2062 131.171C22.76 131.646 16.2287 133.618 16.7037 128.939C17.0125 125.923 19.8625 123.31 21.9287 121.339C26.2987 117.206 31.5475 114.143 36.7725 111.198C42.2587 108.11 47.7212 105.07 52.7562 101.27C58.5512 96.8762 63.8 91.7937 68.3837 86.165C68.7162 85.8325 68.2175 85.3337 67.9325 85.69Z" fill="#323232"/>
<path d="M30.1462 134.472C28.0562 136.99 25.61 139.959 25.99 143.45C26.275 146.134 28.1987 148.651 31.0962 148.461C32.9487 148.342 34.5875 147.321 36.2025 146.537C38.2212 145.564 40.2875 144.685 42.425 144.044C44.5387 143.426 46.7475 143.022 48.9562 142.975C50.7137 142.951 52.7087 143.07 54.1812 144.162C56.4137 145.777 55.0362 148.2 53.8487 150.005C52.685 151.739 51.6637 153.52 50.7612 155.396C49.9537 157.106 49.2412 158.887 48.6712 160.692C48.2437 162.046 47.745 163.637 48.79 164.825C51.0225 167.414 54.4187 165.205 56.295 163.447C59.1687 160.764 62.28 158.531 65.8662 156.869C69.88 155.016 74.25 153.924 78.6437 153.686C80.8762 153.567 83.1325 153.639 85.3412 153.995C87.3125 154.304 89.5212 154.921 90.4475 156.892C90.6375 157.296 91.255 156.94 91.065 156.536C89.7825 153.757 86.2675 153.33 83.56 153.069C80.0212 152.736 76.4112 152.997 72.9437 153.757C69.4762 154.517 66.08 155.8 62.9925 157.557C61.4725 158.412 60.0475 159.386 58.67 160.455C57.1262 161.666 55.82 163.162 54.2525 164.279C52.8512 165.276 49.8587 166.012 49.0275 163.827C48.6237 162.759 49.1462 161.524 49.4787 160.479C49.835 159.386 50.2387 158.317 50.69 157.272C51.4737 155.42 52.4 153.639 53.445 151.929C54.3712 150.432 55.7487 148.912 56.0812 147.131C56.6275 144.234 53.7775 142.737 51.3312 142.381C47.6975 141.882 43.85 142.714 40.43 143.949C38.34 144.709 36.3687 145.682 34.3737 146.656C32.3075 147.677 29.7425 148.461 27.985 146.442C24.7075 142.69 28.1512 137.964 30.645 134.947C30.9537 134.615 30.455 134.116 30.1462 134.472Z" fill="#323232"/>
<path d="M43.8025 146.49C46.035 145.778 48.0062 147.963 48.0537 150.076C48.1012 152.309 46.6287 154.233 45.1563 155.752C44.8238 156.085 45.3463 156.584 45.655 156.251C47.46 154.399 49.3362 151.763 48.6237 149.008C48.0537 146.846 45.8687 145.089 43.6125 145.801C43.185 145.944 43.3513 146.633 43.8025 146.49Z" fill="#323232"/>
<path d="M126.761 85.215C127.854 86.1175 129.136 86.3075 130.49 86.5925C131.962 86.9013 133.245 87.4713 134.266 88.6113C136.19 90.7725 136.784 94.0263 135.359 96.5913C135.145 96.995 135.739 97.3513 135.976 96.9475C137.354 94.4775 137.069 91.4375 135.549 89.11C134.836 88.0175 133.839 87.0675 132.627 86.4975C130.917 85.69 128.78 85.9513 127.26 84.7163C126.904 84.4313 126.405 84.93 126.761 85.215Z" fill="#323232"/>
<path d="M39.67 135.803C41.0237 139.436 45.3225 138.51 47.9587 137.085C49.645 136.183 51.2125 135.019 52.59 133.689C54.0625 132.24 55.25 130.53 56.6987 129.058C58.29 127.443 60.5225 125.97 62.9212 126.374C65.0825 126.73 66.3887 128.654 67.7662 130.126C69.5712 132.026 73.205 133.974 75.0337 130.958C75.2712 130.554 74.6537 130.198 74.4162 130.601C73.2525 132.501 70.7825 131.836 69.3575 130.696C68.075 129.651 67.1487 128.226 65.89 127.158C63.515 125.115 60.5462 125.305 58.0287 127.015C55.25 128.891 53.5637 132.003 51.0225 134.164C49.5262 135.423 47.7925 136.586 45.94 137.275C43.9687 138.011 41.2137 137.964 40.3587 135.636C40.1925 135.185 39.5037 135.375 39.67 135.803Z" fill="#323232"/>
<path d="M45.6075 113.668C48.6475 116.304 51.1887 119.439 53.16 122.954C53.3737 123.357 53.9912 123.001 53.7775 122.597C51.7825 119.011 49.2175 115.853 46.1062 113.169C45.7737 112.86 45.2512 113.383 45.6075 113.668Z" fill="#323232"/>
<path d="M46.225 112.907C48.79 109.511 52.4238 106.044 56.4613 104.5C57.1025 104.263 57.8388 104.049 58.5275 104.215C59.3825 104.405 59.8813 105.141 60.38 105.806C61.0925 106.733 61.7813 107.683 62.47 108.633C63.8238 110.532 65.1063 112.504 66.3175 114.499C66.555 114.879 67.1725 114.522 66.935 114.142C65.415 111.649 63.7763 109.203 62.0425 106.851C60.7363 105.07 59.5488 102.98 57.0075 103.574C54.7988 104.096 52.685 105.711 50.9513 107.065C48.9325 108.656 47.1513 110.509 45.5838 112.551C45.3463 112.907 45.9638 113.264 46.225 112.907Z" fill="#323232"/>
<path d="M53.5875 123.263C58.4325 121.22 62.755 118.228 66.3412 114.38C66.65 114.048 66.1512 113.549 65.8425 113.881C62.3512 117.634 58.1237 120.603 53.3975 122.574C52.97 122.764 53.16 123.453 53.5875 123.263Z" fill="#323232"/>
<path d="M48.98 113.383C51.6875 110.936 54.7038 108.918 58.0288 107.374C58.4325 107.184 58.0763 106.566 57.6725 106.756C54.3 108.324 51.2363 110.39 48.4813 112.884C48.125 113.169 48.6475 113.691 48.98 113.383Z" fill="#323232"/>
<path d="M50.9512 114.57C52.4237 113.501 53.8962 112.456 55.3687 111.388C55.7487 111.126 55.3925 110.509 55.0125 110.77C53.54 111.839 52.0675 112.884 50.595 113.953C50.215 114.238 50.5712 114.855 50.9512 114.57Z" fill="#323232"/>
<path d="M51.9487 116.209C54.4187 114.475 56.8887 112.718 59.3587 110.984C59.7387 110.723 59.3825 110.105 59.0025 110.366C56.5325 112.1 54.0625 113.858 51.5925 115.591C51.2124 115.853 51.5687 116.47 51.9487 116.209Z" fill="#323232"/>
<path d="M54.0387 118.156C55.5587 116.921 57.15 115.829 58.8125 114.808C59.2162 114.57 58.8362 113.953 58.4562 114.19C56.7225 115.211 55.0837 116.375 53.54 117.634C53.1837 117.943 53.6825 118.441 54.0387 118.156Z" fill="#323232"/>
<path d="M55.1313 120.104C57.3637 118.275 59.7862 116.755 62.375 115.496C62.7787 115.306 62.4225 114.689 62.0187 114.879C59.3587 116.161 56.9125 117.753 54.6325 119.605C54.2763 119.89 54.775 120.389 55.1313 120.104Z" fill="#323232"/>
<path d="M103.961 135.019C105.125 133.546 103.748 131.741 102.204 131.314C100.351 130.791 98.2374 131.67 97.3112 133.333C96.2662 135.185 96.6937 137.608 98.0474 139.175C99.7812 141.218 104.294 142.453 103.486 145.825C103.368 146.276 104.056 146.466 104.175 146.015C105.101 142.168 100.47 140.98 98.5462 138.676C97.1924 137.038 96.9549 134.283 98.6649 132.786C99.3537 132.193 100.327 131.836 101.23 131.884C102.299 131.931 104.603 133.095 103.486 134.544C103.178 134.876 103.676 135.375 103.961 135.019Z" fill="#323232"/>
<path d="M104.341 134.876C104.531 133.594 105.125 132.454 106.075 131.575C106.526 131.148 107.049 130.815 107.619 130.554C107.904 130.435 108.212 130.316 108.521 130.245C109.186 130.103 109.329 130.103 109.875 130.578C110.421 131.076 110.445 131.219 110.421 131.908C110.421 132.169 110.374 132.43 110.35 132.668C110.279 133.143 110.136 133.594 109.97 134.045C109.614 135.019 109.067 135.921 108.497 136.776C106.455 139.816 103.534 142.595 103.367 146.466C103.344 146.918 104.056 146.918 104.08 146.466C104.294 141.265 109.685 138.273 110.92 133.428C111.157 132.501 111.347 131.314 110.944 130.411C110.445 129.366 109.352 129.319 108.355 129.556C105.932 130.126 104.08 132.24 103.7 134.686C103.581 135.138 104.27 135.351 104.341 134.876Z" fill="#323232"/>
<path d="M108.379 99.0137C107.951 101.317 107.856 103.74 108.379 106.044C108.877 108.252 110.469 107.777 112.298 107.896C116.454 108.181 121.964 110.817 124.695 106.115C124.933 105.711 124.315 105.355 124.078 105.759C121.75 109.772 116.858 107.801 113.295 107.302C112.464 107.184 111.68 107.184 110.849 107.207C109.566 107.207 109.186 106.59 108.996 105.45C108.64 103.384 108.687 101.294 109.091 99.2275C109.139 98.7525 108.45 98.5625 108.379 99.0137Z" fill="#323232"/>
<path d="M108.474 100.154C109.756 99.37 110.872 99.2275 112.321 98.99C112.939 98.895 113.342 98.6575 113.437 98.0163C113.699 96.4013 113.01 94.7388 114.292 93.3613C115.717 91.8175 117.641 93.195 118.235 94.7625C118.52 95.4988 118.686 96.3538 119.256 96.9475C119.992 97.7313 120.966 97.5175 121.892 97.7788C125.479 98.7525 124.41 103.384 123.65 105.878C123.507 106.305 124.196 106.495 124.339 106.068C125.146 103.479 125.954 100.249 123.792 98.0875C123.436 97.7313 123.032 97.4463 122.581 97.2563C121.892 96.9713 121.132 97.1138 120.42 96.8525C119.042 96.3538 119.066 94.3113 118.235 93.2663C116.739 91.4138 114.174 91.675 113.152 93.8363C112.867 94.43 112.772 95.0475 112.725 95.6888C112.677 96.4488 113.034 97.9688 112.226 98.2775C111.656 98.515 110.777 98.42 110.16 98.61C109.424 98.8238 108.759 99.1563 108.117 99.5363C107.737 99.7975 108.094 100.415 108.474 100.154Z" fill="#323232"/>
<path d="M111.3 99.4175C110.944 102.22 111.419 104.999 112.654 107.54C112.844 107.944 113.461 107.588 113.271 107.184C112.084 104.761 111.656 102.101 112.012 99.4175C112.084 98.9663 111.371 98.9663 111.3 99.4175Z" fill="#323232"/>
<path d="M88.4525 83.6238C85.3888 82.1988 83.56 78.8976 83.7263 75.5251C83.9163 72.0813 86.2438 68.9463 89.2125 67.3076C91.065 66.2863 93.0362 65.9776 94.9125 67.0701C96.6225 68.0438 97.8337 69.7301 98.5225 71.5351C99.7575 74.8126 99.3062 78.5413 97.3587 81.4626C97.0975 81.8426 97.715 82.1988 97.9762 81.8188C101.206 76.9976 100.47 68.6138 94.5562 66.1201C91.5875 64.8613 88.4288 66.5476 86.2913 68.6376C84.2013 70.6801 82.8475 73.6013 83.0138 76.5463C83.2038 79.8001 85.1038 82.8638 88.0725 84.2651C88.5 84.4313 88.8563 83.8138 88.4525 83.6238Z" fill="#323232"/>
<path d="M88.12 84.4788C87.5025 85.1438 87.6687 86.165 88.4287 86.6638C89.6637 87.4713 91.8012 86.735 93.1075 86.4263C94.5087 86.0938 96.6225 85.785 97.5725 84.55C98.1425 83.79 98.1425 82.745 97.4062 82.1038C97.05 81.8188 96.5512 82.3175 96.9075 82.6025C98 83.5288 96.575 84.5975 95.72 84.93C95.0075 85.1913 94.2712 85.405 93.535 85.595C92.8462 85.7613 92.1575 85.9275 91.4687 86.0463C91.0412 86.1175 90.5662 86.2363 90.1387 86.26C89.5212 86.2838 87.74 85.9513 88.6425 85.0013C88.9512 84.645 88.4525 84.1463 88.12 84.4788Z" fill="#323232"/>
<path d="M89.4975 87.02C89.5925 88.4213 90.78 89.3238 92.1575 89.4188C94.0575 89.5375 95.4825 87.9463 96.5988 86.64C96.8838 86.2838 96.385 85.785 96.1 86.1413C95.3163 87.0675 94.4375 88.1363 93.2738 88.54C92.0863 88.9675 90.3288 88.4925 90.2338 87.02C90.1863 86.5688 89.4738 86.5688 89.4975 87.02Z" fill="#323232"/>
<path d="M91.4213 89.68C91.2313 90.6538 91.825 91.675 92.8463 91.8412C93.8913 92.0075 94.7938 91.0813 94.8175 90.0838C94.8175 89.6325 94.105 89.6325 94.105 90.0838C94.105 90.6775 93.535 91.2713 92.8938 91.1288C92.3475 91.01 91.9913 90.3925 92.11 89.87C92.205 89.4188 91.5163 89.2288 91.4213 89.68Z" fill="#323232"/>
<path d="M86.5524 74.6463C88.5949 75.9525 90.1624 77.7813 91.1599 79.99C91.3499 80.4175 91.9674 80.0375 91.7774 79.6338C90.7324 77.3063 89.0699 75.4063 86.9087 74.0288C86.5049 73.7913 86.1487 74.4088 86.5524 74.6463Z" fill="#323232"/>
<path d="M90.21 72.9125C90.6613 76.3325 91.1363 79.7525 91.5875 83.1487C91.6588 83.6 92.3238 83.41 92.2763 82.9587C91.825 79.5387 91.35 76.1187 90.8988 72.7225C90.8275 72.2713 90.1625 72.4612 90.21 72.9125Z" fill="#323232"/>
<path d="M91.4449 78.7313C92.0624 76.4988 93.4874 74.6938 95.5062 73.5538C95.9099 73.34 95.5537 72.7225 95.1499 72.9363C92.9887 74.1475 91.4212 76.1425 90.7562 78.5413C90.6374 78.9925 91.3262 79.1825 91.4449 78.7313Z" fill="#323232"/>
<path d="M65.5575 139.793C66.5075 141.859 67.5287 143.901 68.6687 145.873C69.2387 146.846 69.9987 148.699 71.4 148.105C71.8275 147.915 71.4475 147.321 71.0437 147.488C70.1412 147.868 68.5262 144.186 68.2175 143.593C67.4812 142.239 66.8162 140.838 66.175 139.436C65.985 139.009 65.3675 139.365 65.5575 139.793Z" fill="#323232"/>
<path d="M66.1988 140.22C68.2175 138.653 70.1887 137.038 72.2312 135.518C74.0125 134.164 75.9362 132.858 78.1212 132.24C80.4725 131.551 82.515 132.098 84.0825 133.998C85.4125 135.613 86.22 137.608 87.1225 139.46C87.3125 139.864 87.93 139.508 87.74 139.104C86.0062 135.541 83.9637 130.506 79.095 131.29C76.6725 131.67 74.4875 133 72.5162 134.425C70.1888 136.135 67.9562 137.964 65.6763 139.745C65.3438 140.006 65.8425 140.505 66.1988 140.22Z" fill="#323232"/>
<path d="M70.4262 148.176C76.625 146.822 82.3725 143.925 87.1937 139.793C87.55 139.484 87.0275 138.985 86.695 139.294C81.9687 143.355 76.3162 146.157 70.2362 147.511C69.785 147.606 69.975 148.295 70.4262 148.176Z" fill="#323232"/>
<path d="M76.1975 141.479C74.9388 141.17 73.8938 139.935 74.2025 138.581C74.4875 137.275 76.0788 136.325 77.3375 136.942C79.8787 138.225 78.145 141.883 75.5325 140.956C75.105 140.814 74.915 141.503 75.3425 141.645C76.815 142.168 78.5962 141.455 79.1662 139.959C79.7362 138.486 78.81 136.705 77.3612 136.182C75.7938 135.612 74.0125 136.681 73.5613 138.249C73.0388 140.006 74.3213 141.74 76.0075 142.168C76.4587 142.286 76.6488 141.598 76.1975 141.479Z" fill="#323232"/>
<path d="M88.8562 123.452C88.5712 120.911 88.5475 118.014 91.5637 117.325C93.0837 116.969 94.3425 116.517 95.2212 115.116C96.1237 113.691 96.005 112.361 95.6487 110.794C95.3875 109.559 95.4112 108.49 96.4087 107.564C97.2162 106.827 98.285 106.542 99.33 106.875C99.7575 107.017 99.9475 106.329 99.52 106.186C98 105.711 96.4087 106.305 95.435 107.564C93.9387 109.535 95.6962 111.53 95.1025 113.644C94.7462 114.902 93.7725 115.971 92.5137 116.399C91.4925 116.731 90.4 116.707 89.545 117.42C87.74 118.892 87.9062 121.386 88.1437 123.452C88.1912 123.904 88.9037 123.904 88.8562 123.452Z" fill="#323232"/>
<path d="M83.0613 110.153C82.325 109.559 82.9188 108.229 83.8688 108.728C84.2488 108.918 84.4863 109.369 84.2725 109.773C84.0588 110.176 83.5125 110.39 83.1088 110.176C82.705 109.963 82.3488 110.58 82.7525 110.794C83.4888 111.15 84.3913 110.889 84.8425 110.224C85.3175 109.511 85.0088 108.609 84.32 108.181C83.6313 107.754 82.705 107.873 82.2538 108.585C81.85 109.25 81.945 110.176 82.5625 110.675C82.9188 110.936 83.4175 110.438 83.0613 110.153Z" fill="#323232"/>
<path d="M115.551 73.34C115.124 72.6512 114.863 71.7725 115.124 70.9887C115.338 70.3237 116.003 69.92 116.691 69.9912C117.451 70.0625 117.855 70.775 117.451 71.44C117.095 72.0575 116.359 72.3662 115.67 72.2712C115.219 72.2237 115.219 72.9362 115.67 72.9837C116.691 73.1025 117.808 72.485 118.188 71.5112C118.544 70.6325 118.093 69.6587 117.19 69.3737C116.335 69.0887 115.29 69.4212 114.768 70.1575C113.984 71.2262 114.293 72.675 114.934 73.7438C115.171 74.0763 115.789 73.72 115.551 73.34Z" fill="#323232"/>
<path d="M77.2425 102.458C78.525 104.785 81.1375 106.091 83.7737 105.711C87.0037 105.236 88.7375 102.766 90.02 100.011C91.5162 96.8288 93.5825 94.2163 96.8837 92.815C99.8762 91.5563 103.747 92.1975 106.217 89.8463C107.167 88.9438 107.809 87.685 107.595 86.355C107.429 85.3338 106.811 84.4788 107.049 83.41C107.334 82.2463 108.236 81.3913 109.376 81.1538C109.827 81.0588 109.637 80.37 109.186 80.465C107.809 80.7738 106.692 81.8188 106.36 83.22C106.17 83.98 106.312 84.6688 106.55 85.405C106.93 86.5925 107.072 87.5663 106.289 88.6588C104.911 90.5825 102.489 90.8438 100.327 91.1525C98.4037 91.4375 96.5987 91.96 94.9362 92.9575C93.4637 93.8363 92.1575 95.0238 91.1362 96.4013C90.02 97.9213 89.4025 99.7025 88.5 101.341C87.36 103.36 85.4837 104.904 83.085 105.046C80.9 105.165 78.8575 104.001 77.7887 102.078C77.6462 101.698 77.0287 102.054 77.2425 102.458Z" fill="#323232"/>
<path d="M72.2788 63.5075C71.875 66.4763 71.4713 69.4451 71.0913 72.4138C71.02 72.8651 71.7088 73.0551 71.78 72.6038C72.1838 69.6351 72.5875 66.6663 72.9675 63.6975C73.0387 63.2463 72.35 63.0563 72.2788 63.5075Z" fill="#323232"/>
<path d="M72.16 72.8175C74.9625 70.7988 77.765 68.78 80.5675 66.7613C80.9475 66.5 80.5912 65.8825 80.2112 66.1437C77.4087 68.1625 74.6062 70.1813 71.8038 72.2C71.4238 72.4613 71.78 73.0788 72.16 72.8175Z" fill="#323232"/>
<path d="M72.73 63.9112C79.76 54.4825 86.6713 44.9825 93.4638 35.3875C93.725 35.0075 93.1075 34.6512 92.8463 35.0312C86.0538 44.6262 79.1425 54.15 72.1125 63.555C71.8512 63.9112 72.4688 64.2675 72.73 63.9112Z" fill="#323232"/>
<path d="M81.4462 65.6925C87.9062 57.1425 94.1763 48.45 100.256 39.615C100.518 39.235 99.9 38.8788 99.6388 39.2588C93.5588 48.07 87.2888 56.7863 80.8288 65.3363C80.5438 65.6925 81.1612 66.0488 81.4462 65.6925Z" fill="#323232"/>
<path d="M93.25 35.3875C94.3663 33.2975 95.6725 30.7563 98.1425 30.0675C100.589 29.3788 102.988 31.2313 103.035 33.7725C103.035 34.2238 103.748 34.2238 103.748 33.7725C103.724 31.3263 101.658 29.1175 99.14 29.1888C95.8388 29.2838 93.9863 32.4425 92.6325 35.0313C92.4188 35.435 93.0363 35.7913 93.25 35.3875Z" fill="#323232"/>
<path d="M100.399 39.5438C101.61 37.7388 102.702 35.8863 103.676 33.9388C103.89 33.535 103.272 33.1788 103.059 33.5825C102.085 35.53 100.992 37.3825 99.7812 39.1875C99.5437 39.5438 100.161 39.9238 100.399 39.5438Z" fill="#323232"/>
<path d="M92.7275 36.5513C95.4588 34.6988 98.9975 35.6963 100.351 38.6888C100.541 39.1163 101.159 38.7363 100.969 38.3325C99.4488 34.9838 95.3875 33.8675 92.3713 35.9338C91.9913 36.195 92.3475 36.8125 92.7275 36.5513Z" fill="#323232"/>
<path d="M91.4687 38.6888C93.8437 37.1688 97.3349 38.1663 98.4274 40.8263C98.5937 41.2538 99.2824 41.0638 99.1162 40.6363C97.8337 37.5963 93.915 36.29 91.1125 38.0713C90.7325 38.3325 91.0887 38.95 91.4687 38.6888Z" fill="#323232"/>
<path d="M72.3025 64.2437C73.6087 65.0275 74.915 63.3175 76.2688 63.3413C77.29 63.365 78.24 63.84 78.8338 64.695C79.2613 65.3125 79.475 65.9062 80.1638 66.2625C80.5675 66.4763 80.9238 65.8587 80.52 65.645C79.7125 65.2175 79.475 64.1725 78.7863 63.5788C78.3113 63.175 77.7413 62.89 77.1238 62.7475C76.5063 62.605 75.865 62.605 75.2712 62.7475C74.5112 62.9375 73.395 64.0537 72.6825 63.6262C72.2787 63.3887 71.9225 64.0062 72.3025 64.2437Z" fill="#323232"/>
<path d="M76.1975 62.9613C80.995 56.6438 85.8163 50.3025 90.6138 43.985C90.8988 43.6288 90.2813 43.2725 89.9963 43.6288C85.1988 49.9463 80.3775 56.2875 75.58 62.605C75.3188 62.9613 75.9363 63.3175 76.1975 62.9613Z" fill="#323232"/>
<path d="M83.7262 58.2112C88.1912 51.6562 92.9174 45.315 97.9287 39.1637C98.2137 38.8075 97.7149 38.3087 97.4299 38.665C92.3949 44.8637 87.5974 51.2525 83.1087 57.855C82.8712 58.235 83.4887 58.5912 83.7262 58.2112Z" fill="#323232"/>
<path d="M72.0175 70.5612C72.4687 70.1812 73.1337 70.5612 73.015 71.155C72.92 71.6062 73.6087 71.7962 73.7037 71.345C73.8225 70.775 73.6087 70.1812 73.0862 69.8725C72.5637 69.5638 71.9462 69.6825 71.495 70.0625C71.1625 70.3475 71.6612 70.8462 72.0175 70.5612Z" fill="#323232"/>
<path d="M72.2312 70.4662C72.1125 70.965 71.8987 71.4162 71.59 71.82C71.78 71.9387 71.9937 72.0575 72.1837 72.1762C72.3262 71.6537 72.6112 71.2025 73.015 70.8225C72.825 70.7987 72.635 70.775 72.445 70.7512C72.5637 71.0125 72.4687 71.2975 72.2312 71.44C72.3975 71.5112 72.5875 71.5825 72.7537 71.6537C72.6587 71.3212 72.73 71.0125 72.9437 70.7512C72.8012 70.775 72.6587 70.7987 72.5162 70.7987C72.7062 70.8937 72.6825 71.155 72.4925 71.25C72.635 71.2737 72.7775 71.2975 72.92 71.2975C72.7775 71.1787 72.6587 71.0362 72.5875 70.87C72.5637 70.7987 72.54 70.7275 72.5162 70.6325C72.5162 70.585 72.4687 70.0862 72.3975 70.2287C72.1837 70.6325 72.8012 70.9887 73.015 70.585C73.3475 69.9675 72.4925 69.4212 72.0175 69.92C71.5187 70.4662 71.97 71.3687 72.445 71.7725C72.5637 71.8912 72.73 71.915 72.8725 71.82C73.5375 71.4875 73.5375 70.49 72.8962 70.1337C72.7775 70.0625 72.5637 70.0625 72.4687 70.1812C72.0887 70.6325 71.9462 71.2025 72.0887 71.7725C72.1362 71.9862 72.4212 72.105 72.6112 71.9862C73.205 71.63 73.3712 70.9175 73.0862 70.3237C72.9912 70.11 72.6825 70.11 72.5162 70.2525C72.0175 70.7037 71.685 71.2737 71.5187 71.915C71.4237 72.2237 71.875 72.5562 72.1125 72.2712C72.4925 71.7725 72.7775 71.2262 72.9437 70.6087C73.0387 70.205 72.35 70.015 72.2312 70.4662Z" fill="#323232"/>
<path d="M70.9012 74.195C70.4262 76.76 69.3575 79.1113 67.6712 81.1063C67.3862 81.4625 67.885 81.9613 68.17 81.605C69.9275 79.4913 71.0912 77.0688 71.59 74.3613C71.6612 73.9338 70.9725 73.7438 70.9012 74.195Z" fill="#323232"/>
<path d="M65.9375 77.1638C63.4675 78.9925 60.855 80.6312 58.1475 82.08C57.7438 82.2937 58.1 82.9112 58.5038 82.6975C61.2113 81.2487 63.8238 79.61 66.2938 77.7813C66.6738 77.4963 66.3175 76.8788 65.9375 77.1638Z" fill="#323232"/>
<path d="M123.911 131.456C123.27 130.459 122.201 130.981 121.631 131.741C121.014 132.525 120.515 133.451 119.992 134.306C119.589 134.971 119.114 135.708 119.042 136.539C118.9 138.201 120.159 138.391 121.417 138.795C122.914 139.294 122.819 141.051 121.869 142.025C121.109 142.809 119.992 143.141 118.995 143.474C118.568 143.616 118.757 144.305 119.185 144.163C121.18 143.521 124.149 142.073 123.127 139.413C122.961 138.985 122.676 138.629 122.296 138.391C122.082 138.273 121.845 138.178 121.607 138.106C120.919 137.893 120.729 137.964 120.182 137.37C119.731 137.109 119.589 136.753 119.802 136.278C119.897 135.945 120.016 135.636 120.182 135.351C120.372 134.971 120.61 134.615 120.847 134.259C121.085 133.903 122.747 130.91 123.294 131.789C123.531 132.193 124.149 131.836 123.911 131.456Z" fill="#323232"/>
<path d="M83.1325 159.41C85.08 158.911 86.7425 160.835 85.8875 162.688C85.6975 163.091 86.315 163.471 86.505 163.044C87.6213 160.645 85.555 158.056 82.9662 158.721C82.4912 158.84 82.6812 159.529 83.1325 159.41Z" fill="#323232"/>
<path d="M119.517 120.294C118.615 119.629 118.615 117.895 119.992 117.848C120.491 117.824 121.014 118.109 120.99 118.655C120.99 119.106 120.586 119.653 120.087 119.581C119.636 119.51 119.446 120.199 119.897 120.27C120.776 120.413 121.536 119.771 121.679 118.916C121.845 118.038 121.204 117.277 120.349 117.159C119.47 117.016 118.567 117.515 118.259 118.37C117.95 119.32 118.377 120.341 119.161 120.911C119.517 121.173 119.874 120.555 119.517 120.294Z" fill="#323232"/>
<path d="M20.2425 117.349C20.575 116.019 21.715 115.259 22.7837 114.523C23.9 113.739 25.04 112.931 26.18 112.148C28.4362 110.556 30.6925 108.989 32.9487 107.398C33.3287 107.136 32.9725 106.519 32.5925 106.78C29.9562 108.633 27.32 110.461 24.6837 112.314C22.9025 113.549 20.1237 114.855 19.5537 117.159C19.435 117.61 20.1237 117.8 20.2425 117.349Z" fill="#323232"/>
<path d="M179.581 242.203C150.725 237.263 121.869 232.323 93.0125 227.382C110.54 220.305 128.068 213.251 145.595 206.174C173.002 212.277 200.41 218.381 227.794 224.485C211.739 230.399 195.66 236.289 179.581 242.203Z" fill="white" stroke="#323232" stroke-width="3" stroke-miterlimit="10"/>
<path d="M178.394 242.559C178.489 242.844 178.56 243.152 178.655 243.437C178.774 243.817 179.344 243.746 179.344 243.342C179.344 243.105 179.344 242.891 179.344 242.654C179.344 242.203 178.631 242.203 178.631 242.654C178.631 242.939 178.584 243.2 178.465 243.461C178.703 243.461 178.916 243.461 179.154 243.461C179.059 243.152 179.035 242.867 179.106 242.535C178.893 242.559 178.679 242.583 178.465 242.63C178.536 242.701 178.536 242.749 178.489 242.82C178.703 242.844 178.916 242.867 179.13 242.915C179.083 242.749 179.106 242.606 179.201 242.464C178.988 242.393 178.75 242.345 178.536 242.274C178.489 242.654 178.441 243.01 178.394 243.39C178.37 243.58 178.584 243.746 178.75 243.746C178.964 243.746 179.083 243.58 179.106 243.39C179.154 243.01 179.201 242.654 179.249 242.274C179.296 241.918 178.75 241.823 178.584 242.084C178.394 242.393 178.346 242.749 178.441 243.105C178.513 243.414 178.94 243.437 179.083 243.2C179.273 242.915 179.273 242.559 179.059 242.298C178.893 242.084 178.465 242.06 178.418 242.393C178.323 242.82 178.346 243.271 178.465 243.699C178.584 244.055 179.035 244.007 179.154 243.699C179.273 243.366 179.344 243.034 179.344 242.701C179.106 242.701 178.869 242.701 178.631 242.701C178.631 242.939 178.631 243.152 178.631 243.39C178.869 243.366 179.106 243.319 179.32 243.295C179.225 243.01 179.154 242.701 179.059 242.416C178.964 241.918 178.275 242.108 178.394 242.559Z" fill="#323232"/>
<path d="M178.94 244.269C182.764 242.297 186.944 241.252 191.052 240.089C193.071 239.519 195.066 238.901 196.99 238.094C198.842 237.334 200.624 236.384 202.452 235.529C206.514 233.629 210.907 232.394 215.159 230.992C219.576 229.52 223.97 228.047 228.388 226.599C228.815 226.456 228.625 225.767 228.197 225.91C223.78 227.382 219.386 228.855 214.969 230.304C210.789 231.681 206.49 232.916 202.476 234.745C200.386 235.695 198.344 236.811 196.206 237.642C194.259 238.402 192.264 238.996 190.245 239.566C186.279 240.706 182.265 241.751 178.56 243.651C178.18 243.865 178.536 244.482 178.94 244.269Z" fill="#323232"/>
<path d="M179.273 244.126C195.684 238.45 212.048 232.702 228.411 226.86C229.694 226.409 229.148 224.342 227.841 224.794C211.501 230.636 195.114 236.384 178.703 242.06C177.42 242.511 177.966 244.577 179.273 244.126Z" fill="#323232"/>
<path d="M177.42 221.184C180.508 221.493 183.144 223.369 186.184 223.962C186.635 224.057 186.825 223.369 186.374 223.274C183.286 222.656 180.603 220.78 177.42 220.471C176.969 220.448 176.969 221.16 177.42 221.184Z" fill="#323232"/>
<path d="M186.398 223.63C188.274 222.609 190.031 221.397 191.623 219.972C191.955 219.664 191.456 219.165 191.124 219.474C189.556 220.851 187.87 222.039 186.041 223.012C185.638 223.25 185.994 223.867 186.398 223.63Z" fill="#323232"/>
<path d="M178.156 219.83C179.652 218.761 181.196 217.74 182.787 216.79C183.191 216.552 182.811 215.935 182.431 216.172C180.84 217.122 179.296 218.12 177.8 219.212C177.42 219.497 177.776 220.115 178.156 219.83Z" fill="#323232"/>
<path d="M182.906 216.909C185.614 217.93 188.321 218.927 191.052 219.949C191.48 220.115 191.67 219.426 191.242 219.26C188.535 218.239 185.827 217.241 183.096 216.22C182.669 216.078 182.479 216.766 182.906 216.909Z" fill="#323232"/>
<path d="M175.282 223.891C182.431 226.1 189.485 228.641 196.396 231.515C196.824 231.681 197.014 230.993 196.586 230.826C189.675 227.953 182.621 225.411 175.472 223.203C175.021 223.06 174.831 223.749 175.282 223.891Z" fill="#323232"/>
<path d="M175.971 229.425C180.413 231.563 184.901 233.581 189.438 235.553C189.865 235.743 190.221 235.125 189.794 234.935C185.258 232.988 180.769 230.945 176.327 228.808C175.924 228.618 175.567 229.235 175.971 229.425Z" fill="#323232"/>
<path d="M176.613 235.529C179.035 236.764 181.458 238.022 183.88 239.258C184.284 239.471 184.64 238.854 184.236 238.64C181.814 237.405 179.391 236.146 176.969 234.911C176.565 234.697 176.209 235.315 176.613 235.529Z" fill="#323232"/>
<path d="M177.99 235.742C181.339 232.892 184.854 230.28 188.511 227.857C188.891 227.596 188.535 226.979 188.155 227.24C184.45 229.686 180.887 232.37 177.491 235.244C177.135 235.552 177.634 236.051 177.99 235.742Z" fill="#323232"/>
<path d="M177.111 230.874C179.011 229.544 180.911 228.214 182.811 226.86C183.191 226.599 182.835 225.981 182.455 226.242C180.555 227.572 178.655 228.902 176.755 230.256C176.399 230.518 176.755 231.135 177.111 230.874Z" fill="#323232"/>
<path d="M178.299 243.841C148.445 238.759 118.591 233.676 88.7375 228.594C85.935 207.385 83.1088 186.2 80.3063 164.991C112.44 169.314 144.55 173.636 176.684 177.983C177.23 199.927 177.776 221.872 178.299 243.841Z" fill="white" stroke="#323232" stroke-width="3" stroke-miterlimit="10"/>
<path d="M125.099 207.148C122.51 206.34 121.109 204.155 120.895 201.519C120.681 198.835 121.204 196.246 123.698 194.845C125.906 193.61 128.543 193.966 130.514 195.462C132.485 196.959 134.243 200.022 132.651 202.374C132.39 202.754 133.008 203.11 133.269 202.73C134.979 200.212 133.364 196.887 131.274 195.154C129.113 193.372 126.191 192.826 123.65 194.085C120.705 195.534 119.945 198.479 120.183 201.542C120.42 204.511 121.988 206.958 124.909 207.86C125.336 207.979 125.526 207.29 125.099 207.148Z" fill="#323232"/>
<path d="M125.764 207.409C124.671 205.604 125.027 203.086 126.785 201.827C128.543 200.569 131.06 201.091 132.39 202.706C132.675 203.062 133.174 202.564 132.889 202.207C131.321 200.331 128.376 199.809 126.334 201.257C124.291 202.73 123.864 205.675 125.146 207.765C125.384 208.145 126.001 207.789 125.764 207.409Z" fill="#323232"/>
<path d="M128.21 208.406C127.094 207.219 127.26 205.01 128.756 204.155C130.229 203.3 132.224 204.274 132.699 205.841C132.841 206.269 133.53 206.102 133.387 205.651C132.77 203.656 130.276 202.469 128.4 203.561C126.524 204.654 126.286 207.409 127.711 208.929C128.02 209.237 128.519 208.739 128.21 208.406Z" fill="#323232"/>
<path d="M130.039 210.069C130.965 210.401 132.034 209.855 132.39 208.976C132.77 208.097 132.271 207.147 131.44 206.767C130.609 206.387 129.611 206.601 129.16 207.409C128.732 208.192 128.875 209.261 129.587 209.831C129.944 210.116 130.442 209.618 130.086 209.333C129.136 208.596 129.801 206.862 131.06 207.385C131.606 207.599 131.986 208.169 131.725 208.763C131.464 209.333 130.799 209.618 130.229 209.404C129.801 209.238 129.611 209.926 130.039 210.069Z" fill="#323232"/>
<path d="M176.684 177.959L178.774 243.39" stroke="#323232" stroke-width="3" stroke-miterlimit="10"/>
<path d="M176.826 177.911C177.468 199.429 178.109 220.946 178.75 242.464" stroke="#323232" stroke-width="3" stroke-miterlimit="10"/>
<path opacity="0.37" d="M135.715 173.541C137.259 174.349 150.511 181.569 151.438 194.394C151.96 201.471 148.493 206.839 146.308 210.116C134.528 227.834 111.229 230.969 104.911 231.634C114.103 237.738 146.213 257.854 181.315 256.666C189.129 256.405 201.241 255.859 214.375 248.639C224.231 243.224 230.62 236.265 234.278 231.634C232.021 230.233 229.789 228.855 227.533 227.454C210.955 233.13 194.354 238.806 177.776 244.459C176.921 222.514 176.066 200.593 175.211 178.648C162.03 176.985 148.873 175.275 135.715 173.541Z" fill="#7B7B7B"/>
<path d="M123.223 206.103C121.489 204.203 120.919 201.543 121.774 199.215C122.653 196.864 124.98 194.845 127.759 194.94C130.205 195.035 132.176 196.745 132.889 198.36C133.411 199.595 133.293 200.735 133.293 200.735C133.221 201.376 133.008 201.875 132.841 202.184C131.63 200.783 129.778 200.141 128.044 200.545C125.906 201.044 124.98 202.873 124.885 203.039C123.911 205.034 124.766 206.886 124.885 207.1C124.315 206.744 123.769 206.411 123.223 206.103Z" fill="#FF6838"/>
<path d="M243.397 176.035C242.115 176.985 240.737 178.268 239.479 179.954C234.8 186.248 235.441 193.634 235.774 196.032C231.617 195.178 224.635 194.346 216.394 196.246C211.477 197.386 207.535 199.167 204.637 200.782C205.089 201.067 205.706 201.4 206.49 201.614C210.931 202.825 215.61 199.096 215.752 199.357C215.895 199.595 210.527 202.112 210.812 204.297C211.002 205.77 213.639 206.554 216.37 207.385C218.674 208.074 220.859 208.739 223.78 208.406C227.794 207.955 230.572 205.936 231.807 204.891C232.995 205.485 234.752 206.269 236.961 206.957C241.022 208.192 246.627 209.902 250.356 207.575C252.779 206.055 253.515 202.492 254.892 195.415C256.65 186.343 257.529 181.806 255.106 178.933C251.9 175.109 245.464 175.75 243.397 176.035Z" fill="white" stroke="#323232" stroke-width="3" stroke-miterlimit="10"/>
<path d="M234.966 196.27C237.84 197.339 240.215 199.286 241.854 201.875C242.091 202.255 242.709 201.899 242.471 201.519C240.737 198.764 238.196 196.721 235.156 195.581C234.729 195.439 234.539 196.128 234.966 196.27Z" fill="#323232"/>
<path d="M219.695 200.973C216.869 201.448 214.589 203.348 213.567 206.008C213.401 206.435 214.09 206.625 214.256 206.198C215.182 203.775 217.32 202.089 219.885 201.661C220.336 201.59 220.146 200.901 219.695 200.973Z" fill="#323232"/>
<path d="M213.9 206.459C215.372 207.86 217.415 208.335 219.339 207.717C219.766 207.575 219.576 206.886 219.149 207.029C217.462 207.575 215.681 207.195 214.399 205.96C214.066 205.628 213.567 206.126 213.9 206.459Z" fill="#323232"/>
<path d="M222.996 203.324C221.975 203.941 221.025 204.654 220.123 205.414C219.529 205.936 218.864 206.554 219.006 207.409C219.363 209.665 222.07 209.166 223.542 208.596C223.97 208.43 223.78 207.741 223.353 207.908C222.711 208.145 221.999 208.454 221.31 208.43C220.194 208.383 219.196 207.314 220.146 206.34C221.049 205.39 222.236 204.63 223.353 203.918C223.756 203.704 223.4 203.086 222.996 203.324Z" fill="#323232"/>
<path d="M242.21 142.144C243.184 142.904 244.443 143.949 245.773 145.302C246.153 145.682 247.126 146.68 248.1 147.915C249.62 149.815 250.594 151.62 251.663 153.829C253.04 156.655 254.418 159.481 255.795 163.709C256.959 167.271 258.74 172.876 258.954 180.334C259.049 183.279 258.859 185.749 258.669 187.482C257.695 186.366 256.721 185.63 255.914 185.155C251.378 182.376 245.868 183.374 240.666 184.324C238.719 184.68 237.104 185.107 235.987 185.416C236.272 182.804 236.534 180.191 236.819 177.579C237.056 175.394 237.27 173.185 237.508 170.976C237.056 170.192 236.439 169.076 235.869 167.675C234.752 164.991 232.52 159.719 233.802 153.805C235.322 147.012 240.666 143.165 242.21 142.144Z" fill="url(#paint10_linear_33_268)"/>
<path d="M243.041 143.45C245.416 144.685 247.007 146.822 248.385 149.031C249.81 151.311 251.093 153.662 252.233 156.085C254.56 161.025 256.27 166.25 257.386 171.594C257.481 172.045 258.17 171.855 258.075 171.404C256.935 165.846 255.13 160.455 252.66 155.325C251.449 152.807 250.119 150.361 248.599 148.01C247.245 145.92 245.654 143.972 243.421 142.809C242.994 142.619 242.637 143.236 243.041 143.45Z" fill="#323232"/>
<path d="M235.631 167.604C236.724 169.836 237.864 172.021 239.051 174.206C239.265 174.61 239.882 174.254 239.669 173.85C238.481 171.665 237.341 169.48 236.249 167.247C236.035 166.82 235.417 167.176 235.631 167.604Z" fill="#323232"/>
<path d="M237.317 171.689C236.724 176.296 236.13 180.904 235.56 185.511C235.536 185.749 235.821 185.915 236.011 185.844C240.049 184.561 244.253 183.944 248.48 184.086C251.829 184.205 256.27 184.514 258.146 187.791C258.384 188.195 258.978 187.839 258.764 187.435C256.983 184.3 253.088 183.659 249.81 183.445C245.084 183.112 240.334 183.73 235.845 185.155C235.987 185.274 236.154 185.392 236.296 185.487C236.89 180.88 237.484 176.272 238.054 171.665C238.101 171.238 237.389 171.238 237.317 171.689Z" fill="#323232"/>
<path d="M257.339 171.238C258.17 176.463 259.524 181.996 258.122 187.245C258.004 187.696 258.692 187.886 258.811 187.435C260.236 182.068 258.882 176.415 258.027 171.048C257.956 170.596 257.268 170.786 257.339 171.238Z" fill="#323232"/>
<path opacity="0.32" d="M240.405 141.265C242.566 145.303 244.728 150.124 246.556 155.658C250.143 166.583 251.093 176.391 251.164 183.73C248.741 183.872 246.319 184.015 243.896 184.157C244.68 189.786 245.488 195.439 246.271 201.067C244.751 200.189 242.424 199.072 239.431 198.407C238.458 198.194 234.871 197.481 231.047 198.122C223.02 199.476 218.175 206.055 217.082 207.622C218.175 208.074 219.576 208.501 221.262 208.596C226.44 208.905 230.216 205.912 231.333 204.962C234.871 206.744 237.959 207.599 240.144 208.026C243.968 208.81 248.433 209.712 250.903 207.337C251.093 207.147 251.52 206.696 252.446 204.392C253.895 200.735 254.655 197.315 255.653 191.116C255.866 189.739 256.175 187.886 256.484 185.677C257.078 186.271 257.695 186.889 258.289 187.482C258.574 186.414 258.93 184.822 259.12 182.875C259.619 177.816 258.645 173.826 257.719 170.573C253.99 157.415 251.758 149.483 244.3 143.735C242.756 142.595 241.331 141.764 240.405 141.265Z" fill="#7B7B7B"/>
<path opacity="0.29" d="M252.969 157.534C254.56 165.276 254.774 171.855 254.655 176.605C254.536 181.022 254.085 184.252 253.61 187.506C252.209 197.315 251.496 202.207 248.789 204.487C243.659 208.81 234.515 205.532 232.33 204.701C234.396 206.079 241.83 210.757 249.097 208.169C249.857 207.884 250.689 207.527 251.496 207.005C252.351 205.556 253.491 203.324 254.227 200.402C254.655 198.669 254.774 197.41 254.94 195.937C255.201 193.562 255.652 190.095 256.412 185.749C257.101 186.342 257.814 186.936 258.502 187.53C258.74 186.319 259.049 184.466 259.12 182.186C259.334 176.676 258.122 172.496 256.721 167.722C255.961 165.11 254.774 161.595 252.969 157.534Z" fill="#7B7B7B"/>
<path d="M187.68 95.19C187.917 97.7312 188.345 101.294 189.295 105.497C189.913 108.229 190.292 109.962 191.1 112.124C192.311 115.377 194.615 121.6 200.624 125.661C202.072 126.659 204.471 127.989 207.844 128.772C208.39 128.82 208.936 128.891 209.483 128.939C209.673 129.936 209.91 131.409 210.148 133.19C210.718 137.774 210.433 139.175 211.62 140.41C213.069 141.906 215.372 141.764 215.871 141.716C219.837 141.455 221.832 137.512 221.927 137.299C221.286 136.135 220.645 134.71 220.123 133.047C218.983 129.366 218.959 126.089 219.149 123.856C220.977 121.22 222.996 119.201 225.039 117.634C225.823 117.04 226.488 116.232 227.651 115.829C229.314 115.259 230.169 115.829 231.404 115.449C233.446 114.807 234.325 112.171 234.705 111.079C236.154 106.756 234.373 102.481 233.233 99.94C232.211 97.6125 229.551 91.8412 223.067 87.3288C216.394 82.6738 203.046 77.4963 194.211 84.2175C192.691 85.3813 189.224 88.4925 187.68 95.19Z" fill="white"/>
<path d="M188.677 104.975C187.157 104.714 183.31 103.811 180.816 100.51C177.016 95.4987 179.059 88.4925 181.172 84.7875C184.497 78.9687 190.554 76.95 198.154 74.4087C202.666 72.9125 206.965 71.4875 212.807 71.725C216.037 71.8675 226.986 72.3425 233.541 80.4887C237.436 85.31 237.864 90.4875 238.719 100.7C239.122 105.379 238.814 107.92 238.006 110.342C237.412 112.1 235.489 117.729 229.955 119.985C227.057 121.173 224.374 120.935 222.901 120.698C224.231 118.726 225.561 116.779 226.915 114.807C227.675 114.855 230.382 114.902 232.449 113.026C235.275 110.437 235.774 105.284 233.707 103.906C232.187 102.885 229.171 103.882 226.559 106.234C226.321 104.737 225.941 103.099 225.3 101.412C222.307 93.3612 215.8 88.9437 212.617 87.115C211.359 88.73 207.369 93.4562 200.291 95.3325C194.686 96.805 190.031 95.76 187.965 95.1425C188.202 98.42 188.44 101.697 188.677 104.975Z" fill="#FF6838"/>
<path d="M187.49 95.8075C188.464 103.146 189.485 110.77 193.071 117.373C196.016 122.788 200.766 127.419 206.87 128.963C207.321 129.081 207.511 128.393 207.06 128.274C201.027 126.73 196.372 122.075 193.522 116.684C190.126 110.271 189.152 102.909 188.202 95.8075C188.131 95.3562 187.419 95.3562 187.49 95.8075Z" fill="#323232"/>
<path d="M206.87 129.058C211.169 129.058 215.681 126.754 219.054 124.284C222.45 121.79 225.229 118.584 227.224 114.879C227.437 114.475 226.82 114.119 226.606 114.522C224.682 118.132 221.999 121.267 218.697 123.666C215.396 126.089 211.026 128.345 206.87 128.345C206.395 128.345 206.395 129.058 206.87 129.058Z" fill="#323232"/>
<path d="M219.03 123.714C218.555 128.511 219.481 133.309 221.666 137.607C221.88 138.011 222.497 137.655 222.284 137.251C220.146 133.047 219.291 128.392 219.743 123.714C219.79 123.262 219.078 123.262 219.03 123.714Z" fill="#323232"/>
<path d="M208.699 128.939C209.482 131.646 210.124 134.401 210.599 137.18C210.907 139.032 211.026 141.122 213.092 141.811C216.18 142.856 220.74 141.004 221.927 137.94C222.094 137.512 221.405 137.322 221.239 137.75C220.574 139.484 218.911 140.434 217.201 140.932C215.776 141.336 213.615 141.764 212.404 140.6C211.691 139.911 211.596 138.819 211.454 137.892C211.287 136.919 211.121 135.945 210.931 134.971C210.504 132.881 210.005 130.791 209.411 128.749C209.269 128.321 208.58 128.511 208.699 128.939Z" fill="#323232"/>
<path d="M209.72 131.884C213.948 131.337 216.726 128.107 218.769 124.64C219.006 124.236 218.389 123.88 218.151 124.284C216.275 127.514 213.663 130.672 209.72 131.171C209.269 131.242 209.269 131.955 209.72 131.884Z" fill="#323232"/>
<path d="M209.554 129.461C212.855 129.081 215.824 127.537 218.033 125.044C218.341 124.711 217.843 124.189 217.534 124.545C215.468 126.896 212.665 128.392 209.554 128.749C209.126 128.796 209.103 129.509 209.554 129.461Z" fill="#323232"/>
<path d="M209.673 128.939C212.332 128.559 214.731 127.466 216.774 125.733C217.13 125.424 216.607 124.925 216.275 125.234C214.327 126.896 212.024 127.917 209.483 128.274C209.031 128.321 209.221 129.01 209.673 128.939Z" fill="#323232"/>
<path d="M209.53 129.533C209.649 130.103 209.625 131.243 210.337 131.433C211.026 131.623 212.071 130.815 212.617 130.483C214.494 129.343 216.061 127.799 217.296 125.994C217.557 125.614 216.94 125.257 216.679 125.637C215.8 126.944 214.731 128.108 213.472 129.058C212.879 129.509 212.261 129.889 211.62 130.245C211.359 130.388 210.765 130.791 210.504 130.625C210.337 130.53 210.266 129.509 210.242 129.343C210.124 128.891 209.435 129.081 209.53 129.533Z" fill="#323232"/>
<path d="M209.862 130.198C211.905 129.366 213.829 128.321 215.634 127.063C216.014 126.801 215.657 126.184 215.277 126.445C213.52 127.68 211.667 128.701 209.672 129.509C209.245 129.675 209.435 130.364 209.862 130.198Z" fill="#323232"/>
<path d="M210.219 130.91C212.499 130.102 214.494 128.844 216.156 127.086C216.465 126.754 215.966 126.255 215.658 126.587C214.066 128.226 212.19 129.461 210.029 130.221C209.601 130.387 209.791 131.076 210.219 130.91Z" fill="#323232"/>
<path d="M210.599 130.53C212.285 129.794 213.829 128.796 215.159 127.514C215.491 127.205 214.992 126.706 214.66 127.015C213.354 128.25 211.881 129.2 210.242 129.912C209.815 130.102 210.171 130.72 210.599 130.53Z" fill="#323232"/>
<path d="M191.195 113.857C187.324 112.48 186.041 107.421 186.421 103.764C186.825 99.75 190.435 95.38 194.852 97.2562C196.966 98.1587 197.75 100.486 198.32 102.552C198.914 104.737 199.175 107.16 198.605 109.392C198.106 111.364 196.895 113.24 194.995 114.095C193.095 114.95 190.839 114.475 189.556 112.836C189.271 112.48 188.773 112.979 189.058 113.335C191.219 116.114 195.28 115.567 197.465 113.121C200.244 110.01 199.959 105.284 198.771 101.555C198.225 99.8212 197.512 98.0162 195.921 97.0187C194.544 96.14 192.786 95.9262 191.243 96.33C187.633 97.3037 185.756 101.127 185.685 104.619C185.614 108.442 187.11 113.169 191.053 114.546C191.433 114.689 191.623 114 191.195 113.857Z" fill="#323232"/>
<path d="M199.412 106.756C201.74 105.355 204.566 105.212 206.989 106.424C207.393 106.637 207.749 106.02 207.345 105.806C204.685 104.476 201.597 104.595 199.032 106.139C198.676 106.376 199.032 106.994 199.412 106.756Z" fill="#323232"/>
<path d="M210.765 111.815C208.081 109.226 206.965 105.212 208.01 101.602C209.102 97.85 212.855 94.62 216.892 95.95C221.357 97.4225 221.595 103.811 220.431 107.564C219.742 109.772 218.365 111.981 216.085 112.789C213.805 113.596 211.834 112.385 210.005 111.102C209.625 110.841 209.269 111.459 209.649 111.72C211.145 112.789 212.76 113.857 214.66 113.786C216.465 113.715 218.104 112.717 219.22 111.364C221.737 108.324 222.236 103.692 221.191 99.9875C220.241 96.615 217.439 94.43 213.852 95.0238C210.432 95.57 207.915 98.6575 207.155 101.887C206.276 105.616 207.464 109.654 210.219 112.314C210.599 112.646 211.097 112.124 210.765 111.815Z" fill="#323232"/>
<path d="M193.356 104.001C193.119 105.497 193.38 106.946 194.187 108.229C194.354 108.49 194.734 108.442 194.829 108.134C195.399 106.495 194.591 104.88 193.784 103.479C193.617 103.17 193.119 103.312 193.119 103.669C193.142 104.927 193.404 106.162 193.879 107.326C194.045 107.754 194.734 107.564 194.567 107.136C194.116 106.02 193.855 104.88 193.831 103.669C193.617 103.74 193.38 103.787 193.166 103.859C193.902 105.117 194.662 106.495 194.14 107.967C194.354 107.944 194.567 107.92 194.781 107.872C194.069 106.756 193.807 105.497 194.021 104.191C194.116 103.74 193.427 103.55 193.356 104.001Z" fill="#323232"/>
<path d="M214.375 103.336C214.375 103.027 214.351 102.956 214.209 102.695C214.042 102.386 213.544 102.529 213.544 102.885C213.567 104.357 213.686 105.949 214.826 106.994C215.064 107.207 215.396 107.041 215.444 106.732C215.634 104.975 215.111 103.336 214.019 101.959C213.781 101.674 213.354 101.982 213.425 102.315C213.71 103.479 214.066 104.619 214.494 105.711C214.66 106.139 215.349 105.949 215.183 105.521C214.731 104.405 214.375 103.289 214.114 102.125C213.924 102.244 213.71 102.362 213.52 102.481C214.494 103.716 214.898 105.189 214.731 106.756C214.945 106.661 215.135 106.59 215.349 106.495C214.327 105.569 214.28 104.167 214.256 102.885C214.042 102.956 213.805 103.004 213.591 103.075C213.615 103.17 213.639 103.265 213.662 103.36C213.662 103.787 214.375 103.787 214.375 103.336Z" fill="#323232"/>
<path d="M201.788 108.015C201.313 109.44 200.909 110.889 200.648 112.361C200.505 113.145 200.006 114.617 200.363 115.401C201.075 116.992 204.234 116.019 205.326 115.496C205.73 115.306 205.374 114.689 204.97 114.879C204.091 115.306 203.141 115.52 202.168 115.449C201.598 115.401 201.146 115.306 201.028 114.665C200.956 114.309 201.194 113.382 201.265 112.979C201.55 111.34 201.978 109.749 202.5 108.181C202.619 107.777 201.93 107.587 201.788 108.015Z" fill="#323232"/>
<path d="M205.374 121.719C207.155 121.481 208.699 120.341 209.482 118.702C209.672 118.299 209.055 117.919 208.865 118.346C208.153 119.842 206.823 120.816 205.184 121.03C204.733 121.101 204.946 121.79 205.374 121.719Z" fill="#323232"/>
<path d="M191.86 101.959C192.311 101.412 193.142 101.317 193.712 101.792C194.069 102.101 194.568 101.579 194.211 101.294C193.38 100.581 192.097 100.629 191.361 101.46C191.052 101.792 191.551 102.291 191.86 101.959Z" fill="#323232"/>
<path d="M212.238 100.629C212.974 99.9875 214.09 99.9875 214.826 100.605C215.183 100.89 215.681 100.391 215.325 100.106C214.28 99.2037 212.76 99.2275 211.715 100.13C211.383 100.439 211.905 100.938 212.238 100.629Z" fill="#323232"/>
<path d="M221.595 103.906C224.16 103.004 226.796 102.457 229.528 102.315C229.979 102.291 229.979 101.579 229.528 101.602C226.749 101.745 224.041 102.291 221.405 103.217C220.977 103.384 221.144 104.072 221.595 103.906Z" fill="#323232"/>
<path opacity="0.4" d="M225.134 74.3137C226.559 76.1425 232.045 83.6475 231.024 93.955C230.454 99.7025 228.079 103.93 226.582 106.162C227.437 105.497 228.174 105.046 228.72 104.737C230.169 103.93 231.095 103.431 232.283 103.502C232.639 103.526 233.494 103.597 234.111 104.096C235.916 105.616 235.299 111.007 232.092 113.525C230.335 114.902 228.269 115.045 227.224 115.021C225.87 116.945 224.492 118.869 223.139 120.816C224.041 120.959 225.419 121.077 227.01 120.84C227.699 120.745 230.454 120.246 233.066 118.156C235.631 116.09 236.676 113.572 237.365 111.862C239.265 107.112 238.885 102.932 238.22 95.4037C237.935 92.055 237.769 90.345 237.104 88.0887C236.391 85.6425 235.275 82.0325 232.092 78.8025C229.812 76.4275 227.247 75.0975 225.134 74.3137Z" fill="#7B7B7B"/>
<path opacity="0.48" d="M202.191 94.6199C204.566 92.5062 207.226 89.7987 209.791 86.4262C211.383 84.3362 212.713 82.3175 213.805 80.4412C213.401 82.5787 212.998 84.7162 212.618 86.8537C211.691 88.1837 210.147 90.0837 207.749 91.8175C205.635 93.3137 203.64 94.1449 202.191 94.6199Z" fill="#7B7B7B"/>
<path opacity="0.27" d="M219.077 91.9125C220.882 97.9212 221.025 102.956 220.859 106.281C220.74 108.751 220.075 121.695 213.259 126.16C212.594 126.587 210.907 127.585 210.979 127.727C211.074 127.894 214.232 126.492 215.966 125.542C218.697 124.07 222.901 121.101 226.796 114.831C227.437 114.902 230.572 115.116 232.829 112.955C235.56 110.366 236.035 105.284 233.874 103.787C232.33 102.719 229.385 103.621 226.796 105.759C226.535 104.666 226.202 103.526 225.751 102.315C223.97 97.6125 221.286 94.1925 219.077 91.9125Z" fill="#7B7B7B"/>
<path opacity="0.36" d="M213.354 127.537C213.971 129.437 214.589 131.337 215.206 133.261C216.061 135.874 216.892 138.51 217.724 141.123C218.199 141.028 219.363 140.695 220.384 139.65C221.405 138.605 221.738 137.465 221.856 136.99C220.93 135.161 219.838 132.382 219.458 128.867C219.268 127.039 219.315 125.424 219.458 124.07C217.439 125.234 215.396 126.397 213.354 127.537Z" fill="#7B7B7B"/>
<path opacity="0.43" d="M201.502 108.846C200.315 111.387 199.127 113.905 197.94 116.446C199.887 116.399 201.811 116.375 203.759 116.328C202.619 115.971 201.455 115.615 200.315 115.259C200.695 113.121 201.099 110.984 201.502 108.846Z" fill="#7B7B7B"/>
<defs>
<linearGradient id="paint0_linear_33_268" x1="191.965" y1="140.307" x2="153.061" y2="173.435" gradientUnits="userSpaceOnUse">
<stop stop-color="#0CBD88"/>
<stop offset="1" stop-color="#56DE9D"/>
</linearGradient>
<linearGradient id="paint1_linear_33_268" x1="241.6" y1="137.593" x2="155.224" y2="196.948" gradientUnits="userSpaceOnUse">
<stop stop-color="#0CBD88"/>
<stop offset="1" stop-color="#56DE9D"/>
</linearGradient>
<linearGradient id="paint2_linear_33_268" x1="110.351" y1="130.719" x2="98.1686" y2="142.097" gradientUnits="userSpaceOnUse">
<stop stop-color="#0CBD88"/>
<stop offset="1" stop-color="#56DE9D"/>
</linearGradient>
<linearGradient id="paint3_linear_33_268" x1="110.249" y1="130.182" x2="100.753" y2="137.641" gradientUnits="userSpaceOnUse">
<stop stop-color="#0CBD88"/>
<stop offset="1" stop-color="#56DE9D"/>
</linearGradient>
<linearGradient id="paint4_linear_33_268" x1="99.168" y1="68.4608" x2="83.3115" y2="80.5048" gradientUnits="userSpaceOnUse">
<stop stop-color="#0CBD88"/>
<stop offset="1" stop-color="#56DE9D"/>
</linearGradient>
<linearGradient id="paint5_linear_33_268" x1="96.4351" y1="84.9894" x2="93.2482" y2="89.4845" gradientUnits="userSpaceOnUse">
<stop stop-color="#0CBD88"/>
<stop offset="1" stop-color="#56DE9D"/>
</linearGradient>
<linearGradient id="paint6_linear_33_268" x1="95.2355" y1="88.235" x2="92.4383" y2="90.974" gradientUnits="userSpaceOnUse">
<stop stop-color="#0CBD88"/>
<stop offset="1" stop-color="#56DE9D"/>
</linearGradient>
<linearGradient id="paint7_linear_33_268" x1="98.0536" y1="39.2308" x2="73.1396" y2="60.637" gradientUnits="userSpaceOnUse">
<stop stop-color="#0CBD88"/>
<stop offset="1" stop-color="#56DE9D"/>
</linearGradient>
<linearGradient id="paint8_linear_33_268" x1="62.2942" y1="142.554" x2="59.5778" y2="145.293" gradientUnits="userSpaceOnUse">
<stop stop-color="#0CBD88"/>
<stop offset="1" stop-color="#56DE9D"/>
</linearGradient>
<linearGradient id="paint9_linear_33_268" x1="40.9154" y1="121.405" x2="38.313" y2="124.042" gradientUnits="userSpaceOnUse">
<stop stop-color="#0CBD88"/>
<stop offset="1" stop-color="#56DE9D"/>
</linearGradient>
<linearGradient id="paint10_linear_33_268" x1="258.468" y1="143.957" x2="222.124" y2="165.527" gradientUnits="userSpaceOnUse">
<stop stop-color="#0CBD88"/>
<stop offset="1" stop-color="#56DE9D"/>
</linearGradient>
</defs>
</svg>
